<?xml version="1.0" encoding="utf-8"?>
<!-- Generator: Adobe Illustrator 16.0.0, SVG Export Plug-In . SVG Version: 6.00 Build 0)  -->
<!DOCTYPE svg PUBLIC "-//W3C//DTD SVG 1.1//EN" "http://www.w3.org/Graphics/SVG/1.1/DTD/svg11.dtd">
<svg version="1.1" id="Layer_1" xmlns="http://www.w3.org/2000/svg" xmlns:xlink="http://www.w3.org/1999/xlink" x="0px" y="0px"
	 width="155.98px" height="138.982px" viewBox="0 0 155.98 138.982" enable-background="new 0 0 155.98 138.982"
	 xml:space="preserve">
<g>
	<g>
		<path fill-rule="evenodd" clip-rule="evenodd" fill="none" d="M1,1c52.327,0,104.653,0,156.98,0c0,46.661,0,93.321,0,139.982
			c-52.327,0-104.654,0-156.98,0C1,94.321,1,47.661,1,1z M116.161,76.017c0-2.984,0-5.438,0-8.053c1.293,0,2.41,0,3.399,0
			c0.959-1.295-0.148-2.786,0.971-4.053c2.312,0,4.763,0,7.229,0c0-8.073,0-15.969,0-24.038c-1.341,0-2.458,0-3.477,0
			c-0.771-1.326,0.32-2.813-0.951-4.052c-2.306,0-4.76,0-7.37,0c0-5.289,0-10.405,0-15.648c-25.387,0-50.602,0-75.985,0
			c0,7.952,0,15.731,0,23.378c-1.284,0.994-2.777-0.13-3.903,0.857c-0.06,1.097-0.122,2.217-0.202,3.677c-5.35,0-10.591,0-15.734,0
			c0,5.464,0,10.579,0,15.612c1.286,0.781,2.775-0.322,3.837,0.743c0.172,1.15-0.296,2.329,0.338,3.403
			c2.542,0.57,5.209-0.401,7.652,0.518c0.194,1.294-0.374,2.487,0.527,3.696c2.342,0,4.796,0,7.331,0
			c0.532,1.335-0.417,2.794,0.773,4.049c4.955,0,10.071,0,15.221,0c0.178,1.43,0.492,2.694-0.241,3.863
			c-1.188,0.17-2.367-0.3-3.599,0.438c0,3.705,0,7.49,0,11.617c-5.401,0-10.643,0-15.875,0c0,9.46,0,18.57,0,27.779
			c30.654,0,61.198,0,91.78,0c0-9.291,0-18.402,0-27.863c-2.661,0-5.246,0-7.973,0c0-4.132,0-7.918,0-12.046
			c-2.738,0-5.321,0-7.777,0c0-1.476,0-2.589,0-3.877C113.4,76.017,114.518,76.017,116.161,76.017z"/>
		<path fill-rule="evenodd" clip-rule="evenodd" fill="#3C3C3C" d="M116.161,76.017c-1.644,0-2.761,0-4.026,0
			c0,1.288,0,2.401,0,3.877c2.456,0,5.039,0,7.777,0c0,4.128,0,7.914,0,12.046c2.727,0,5.312,0,7.973,0c0,9.461,0,18.572,0,27.863
			c-30.582,0-61.126,0-91.78,0c0-9.209,0-18.319,0-27.779c5.231,0,10.474,0,15.875,0c0-4.127,0-7.912,0-11.617
			c1.232-0.738,2.411-0.269,3.599-0.438c0.733-1.169,0.419-2.434,0.241-3.863c-5.15,0-10.266,0-15.221,0
			c-1.189-1.255-0.241-2.714-0.773-4.049c-2.535,0-4.989,0-7.331,0c-0.901-1.209-0.333-2.402-0.527-3.696
			c-2.443-0.919-5.111,0.053-7.652-0.518c-0.634-1.074-0.167-2.252-0.338-3.403c-1.062-1.065-2.551,0.038-3.837-0.743
			c0-5.034,0-10.148,0-15.612c5.143,0,10.385,0,15.734,0c0.08-1.46,0.142-2.58,0.202-3.677c1.126-0.987,2.619,0.137,3.903-0.857
			c0-7.646,0-15.426,0-23.378c25.384,0,50.599,0,75.985,0c0,5.243,0,10.36,0,15.648c2.61,0,5.064,0,7.37,0
			c1.271,1.24,0.18,2.726,0.951,4.052c1.019,0,2.136,0,3.477,0c0,8.068,0,15.965,0,24.038c-2.467,0-4.918,0-7.229,0
			c-1.119,1.268-0.012,2.758-0.971,4.053c-0.989,0-2.106,0-3.399,0C116.161,70.578,116.161,73.032,116.161,76.017z M84.132,112.128
			c0,1.121,0,2.384,0,3.679c1.372,0.207,2.6,0.404,3.749-0.139c0-1.203,0-2.301,0-3.54c-1.365,0-2.628,0-3.892-0.142
			c0-1.333,0-2.667,0-4c1.251,0,2.502,0,4,0c0-1.498,0-2.749,0-3.999c0-1.333,0-2.667,0-4s0-2.667,0-3.999c1.333,0,2.666,0,3.999,0
			c0,1.332,0,2.666,0,3.999s0,2.667,0,4c0,1.332,0,2.666,0,3.999s0,2.667,0,4c0.178,1.274-0.34,2.612,0.328,3.999
			c2.648,0,5.284,0.037,7.92-0.011c2.589-0.047,5.202,0.204,7.75-0.139c0-1.525,0-2.688,0-3.85c0-1.333,0-2.667,0-4
			c0-1.269,0-2.536,0-3.801c-2.837,0-5.37,0-7.898,0c0,1.299,0,2.4,0,3.801c1.352,0,2.625,0,3.899,0c0,1.333,0,2.667,0,4
			c-2.667,0-5.333,0-7.999,0c0-1.333,0-2.667,0-4s0-2.667,0-3.999c0-1.333,0-2.667,0-4c3.899,0,7.8,0,11.998,0
			c0-1.462,0-2.73,0-3.999c1.333,0,2.666,0,4,0c0,1.332,0,2.666,0,3.999s0,2.667,0,4c0,1.332,0,2.666,0,3.999s0,2.667,0,4
			c0,1.272,0,2.546,0,3.797c4.182,0,8.046,0,11.886,0c0-1.31,0-2.416,0-3.797c-2.697,0-5.292,0-7.887,0c0-1.333,0-2.667,0-4
			c1.271-0.172,2.603,0.33,4.117-0.38c-0.536-1.162,0.558-2.503-0.631-3.619c-1.171,0-2.328,0-3.486,0c0-1.333,0-2.667,0-4
			c2.614,0,5.228,0,7.857,0c0.09-1.576,0.514-2.854-0.323-3.999c-2.557,0-5.046,0-7.534,0c0-3.919,0-7.837,0-12.07
			c-2.796,0-5.356,0-7.913,0c-0.07-1.429-0.124-2.539-0.191-3.928c-2.697,0-5.295,0-7.894,0c0-1.333,0-2.667,0-4
			c2.61,0,5.222,0,7.643,0c0.809-1.471-0.263-2.942,0.83-3.992c1.15-0.147,2.323,0.324,3.378-0.327
			c0.557-2.55-0.384-5.204,0.412-7.416c1.354-0.603,2.563,0.187,3.556-0.589c0.649-1.176-0.549-2.67,0.981-3.861
			c2.212,0,4.651,0,7.197,0c0-2.819,0.038-5.453-0.011-8.086c-0.049-2.58,0.211-5.186-0.145-7.724c-1.525,0-2.685,0-3.845,0
			c-0.174-1.273,0.336-2.608-0.258-3.857c-2.606-0.51-5.256,0.341-7.74-0.479c0-1.343,0-2.503,0-3.663c0-1.333,0-2.667,0-4
			c0-1.333,0-2.667,0-4c-0.172-1.272,0.33-2.603-0.38-4.118c-1.162,0.537-2.504-0.557-3.62,0.632c0,1.169,0,2.328,0,3.486
			c0,1.333,0,2.667,0,4c0,1.333,0,2.667,0,4c0,2.667,0,5.332,0,7.999c-1.333,0-2.666,0-3.999,0
			c-0.175-1.273,0.335-2.608-0.259-3.857c-2.606-0.51-5.256,0.341-7.74-0.479c0-1.343,0-2.503,0-3.663
			c1.271-0.172,2.603,0.33,3.876-0.267c0.07-1.312,0.493-2.587-0.337-3.733c-1.224,0-2.382,0-3.539,0c0-1.333,0-2.667,0-4
			c2.595,0,5.189,0,7.789,0c0.249-1.519,0.439-2.757-0.183-4c-2.016,0-3.981-0.039-5.944,0.011c-1.896,0.049-3.833-0.247-5.662,0.25
			c0,1.438,0,2.588,0,3.739c0,1.333,0,2.667,0,4c0,1.333,0,2.667,0,4c0,2.667,0,5.332,0,7.999c-1.333,0-2.666,0-3.999,0
			c0-1.251,0-2.502,0-4c-1.498,0-2.749,0-4,0c0-1.251,0-2.502,0-4c-1.497,0-2.749,0-3.999,0c0-1.333,0-2.667,0-4
			c1.25,0,2.502,0,3.999,0c0-1.497,0-2.749,0.143-4.142c1.121,0,2.384,0,4.047,0c-0.563-1.35,0.354-2.618-0.549-3.75
			c-1.161,0-2.26,0-3.498,0c0,1.355,0,2.624-0.143,3.892c-1.251,0-2.502,0-3.999,0c0,1.497,0,2.749,0,4c-1.334,0-2.667,0-4,0
			c0-1.251,0-2.503,0-4c-1.497,0-2.749,0-4.142-0.143c0-1.123,0-2.384,0-3.678c-1.373-0.207-2.6-0.404-3.75,0.139
			c0,1.203,0,2.3,0,3.54c1.366,0,2.628,0,3.892,0.143c0,1.25,0,2.502,0,4c1.498,0,2.749,0,4,0c0,1.333,0,2.667,0,4
			c-1.25,0-2.502,0-4,0c0,1.498,0,2.749,0,4c-1.25,0-2.502,0-4,0c0,1.498,0,2.749,0,4c-1.333,0-2.666,0-4,0c0-2.667,0-5.333,0-7.999
			c0-1.333,0-2.667,0-4c0-1.333,0-2.667,0-4c-0.171-1.272,0.331-2.603-0.266-3.876c-1.311-0.07-2.587-0.492-3.733,0.337
			c0,1.223,0,2.381,0,3.54c0,1.333,0,2.667,0,4c0,1.333,0,2.667,0,4c0,2.667,0,5.332,0,7.999c-3.999,0-7.999,0-11.998,0
			c0-2.667,0-5.333,0-7.999c2.573,0,5.146,0,7.999,0c0-1.463,0-2.731,0-4c0-1.333,0-2.667,0-4c-0.176-1.274,0.338-2.611-0.327-4
			c-1.98,0-3.951-0.016-5.921,0.005c-1.926,0.019-3.852,0.074-5.75,0.113c0,1.558,0,2.72,0,3.881c0,1.333,0,2.667,0,4
			c0,1.333,0,2.667,0,4c0,2.667,0,5.332,0,7.999c-0.18,1.277,0.344,2.618-0.34,4.022c-1.118,0-2.237,0-3.23,0
			c-0.96,1.294,0.135,2.78-0.958,4.042c-4.98,0-10.093,0-15.254,0c0,2.738,0,5.303,0,7.852c1.333,0.067,2.453,0.123,3.458,0.174
			c0.816,1.329-0.288,2.816,0.946,4.059c2.313,0,4.765,0,7.105,0c0.735,1.32-0.363,2.804,0.974,4.033c2.286,0,4.736,0,7.224,0
			c0.061,1.301,0.113,2.42,0.181,3.876c5.338,0,10.577,0,15.792,0c0.082,1.46,0.145,2.579,0.202,3.586
			c1.282,0.887,2.782-0.282,4.028,0.964c0,0.96,0,2.076,0,3.095c1.325,0.762,2.809-0.327,3.871,0.77c0,1.194,0,2.359,0,3.523
			c-3.918,0-7.836,0-11.998,0c0,4.163,0,8.081,0,11.999c0,1.332,0,2.666,0,3.999s0,2.667,0,4c0,1.332,0,2.666,0,3.999s0,2.667,0,4
			c0.176,1.273-0.338,2.61,0.327,3.999c1.98,0,3.951,0.016,5.921-0.005c1.926-0.019,3.852-0.074,5.75-0.113c0-1.559,0-2.721,0-3.881
			c0-1.333,0-2.667,0-4s0-2.667,0-3.999c0-1.333,0-2.667,0-4s0-2.667,0-3.999c1.333,0,2.667,0,4,0c0,1.332,0,2.666,0,3.999
			s0,2.667,0,4c0,1.332,0,2.666,0,3.999s0,2.667,0,4c0.172,1.271-0.331,2.602,0.379,4.117c1.163-0.537,2.504,0.557,3.62-0.632
			c0-1.17,0-2.328,0-3.485c0-1.333,0-2.667,0-4c1.333,0,2.666,0,4,0c0,1.251,0,2.502,0,4
			C81.487,111.986,82.738,111.986,84.132,112.128z M43.995,111.986c0-1.333,0-2.667,0-4c1.271-0.172,2.603,0.33,3.876-0.267
			c0.07-1.312,0.493-2.587-0.336-3.732c-1.224,0-2.382,0-3.54,0c0-1.333,0-2.667,0-4c2.595,0,5.189,0,7.79,0
			c0.249-1.519,0.439-2.757-0.183-3.999c-2.016,0-3.981-0.039-5.944,0.011c-1.896,0.049-3.833-0.247-5.662,0.25
			c0,1.438,0,2.588,0,3.738c0,1.333,0,2.667,0,4c0,1.332,0,2.666,0,3.999s0,2.667,0,4c0.172,1.271-0.331,2.602,0.266,3.876
			c1.311,0.07,2.587,0.492,3.733-0.337C43.995,114.302,43.995,113.144,43.995,111.986z"/>
		<path fill-rule="evenodd" clip-rule="evenodd" fill="#1E1E1E" d="M119.984,43.995c1.16,0,2.319,0,3.845,0
			c0.355,2.538,0.096,5.144,0.145,7.724c0.049,2.633,0.011,5.268,0.011,8.086c-2.546,0-4.985,0-7.197,0
			c-1.53,1.191-0.332,2.686-0.981,3.861c-0.993,0.776-2.201-0.014-3.556,0.589c-0.796,2.212,0.145,4.866-0.412,7.416
			c-1.055,0.651-2.228,0.18-3.378,0.327c-1.093,1.05-0.021,2.521-0.83,3.992c-2.421,0-5.032,0-7.643,0c0-1.333,0-2.666,0-3.999
			c1.268,0,2.536,0,3.621,0c0.854-1.434-0.234-2.885,0.959-4.104c0.973,0,2.075,0,3.419,0c0-2.728,0-5.312,0-7.896
			c1.251,0,2.502,0,4,0c0-1.498,0-2.749,0-3.999c1.333,0,2.666,0,3.999,0c1.251,0,2.502,0,3.999,0c0-1.498,0-2.749,0-4
			c0-1.262,0-2.526,0-3.999c-2.852,0-5.425,0-7.998,0c-4,0-7.999,0-11.999,0c-7.999,0-15.998,0-23.997,0c-1.333,0-2.666,0-4,0
			c-1.333,0-2.666,0-4,0c-2.666,0-5.333,0-7.999,0c-3.943,0-7.887,0-11.85,0c-0.105,1.572-0.513,2.847,0.311,3.999
			c2.559,0,5.049,0,7.54,0c0,1.333,0,2.667,0,4c0,3.951,0,7.904,0,12.021c2.795,0,5.25,0,7.855,0
			c0.461,1.336-0.379,2.776,0.684,4.052c6.31,0,12.758,0,19.245,0c0.277,1.426,0.43,2.673-0.243,4.05c-3.78,0-7.565,0-11.694,0
			c0,2.741,0,5.32,0,7.874c-1.518,0-2.683,0-3.849,0c0-1.164,0-2.329,0-3.523c-1.062-1.097-2.546-0.008-3.871-0.77
			c0-1.019,0-2.135,0-3.095c-1.246-1.246-2.746-0.077-4.028-0.964c-0.057-1.007-0.12-2.126-0.202-3.586c-5.215,0-10.454,0-15.792,0
			c-0.068-1.456-0.12-2.575-0.181-3.876c-2.487,0-4.938,0-7.224,0c-1.337-1.229-0.239-2.712-0.974-4.033c-2.34,0-4.792,0-7.105,0
			c-1.234-1.243-0.13-2.73-0.946-4.059c-1.005-0.051-2.125-0.106-3.458-0.174c0-2.548,0-5.113,0-7.852c5.161,0,10.274,0,15.254,0
			c1.093-1.262-0.002-2.748,0.958-4.042c0.993,0,2.113,0,3.23,0c0.685-1.404,0.161-2.745,0.34-4.022c1.333,0,2.666,0,4,0
			c3.999,0,7.999,0,11.998,0c1.333,0,2.667,0,4,0c1.333,0,2.667,0,4,0c1.333,0,2.667,0,4,0c4,0,8,0,11.999,0c1.333,0,2.666,0,4,0
			c1.333,0,2.666,0,3.999,0c4,0,7.999,0,11.999,0c1.333,0,2.666,0,3.999,0C111.986,43.995,115.985,43.995,119.984,43.995z
			 M35.996,55.993c-1.272,0.171-2.603-0.33-4,0.324c0,0.646-0.008,1.285,0.002,1.924c0.01,0.631-0.167,1.323,0.537,1.751
			c1.144,0,2.302,0,3.46,0c1.333,0,2.666,0,4,0c0.176,1.274-0.338,2.611,0.327,4c1.98,0,3.95,0.016,5.921-0.005
			c1.926-0.019,3.852-0.074,5.75-0.113c0-1.558,0-2.72,0-3.881c0-1.272,0-2.545,0-3.999C46.454,55.993,41.225,55.993,35.996,55.993z
			"/>
		<path fill-rule="evenodd" clip-rule="evenodd" fill="#1E1E1E" d="M71.991,95.988c-1.333,0-2.666,0-4,0c-4,0-7.999,0-11.998,0
			c0-3.918,0-7.836,0-11.999c4.162,0,8.08,0,11.998,0c-0.171,1.271,0.33,2.602-0.399,4.162c-2.488,0-5.051,0-7.631,0
			c0.157,1.441-0.279,2.604,0.297,3.603c3.949,0,7.831,0,11.868,0c0-1.351,0-2.459,0-3.765c9.397,0,18.63,0,27.861,0
			c0,1.25,0,2.501,0,3.999c1.497,0,2.749,0,4,0c2.613,0,5.228,0,7.856,0c0.091-1.576,0.514-2.854-0.322-3.999
			c-2.558,0-5.046,0-7.534,0c0-1.251,0-2.502,0-4c-1.498,0-2.749,0-4,0c0-1.333,0-2.667,0-3.999c2.599,0,5.196,0,7.894,0
			c0.067,1.389,0.121,2.499,0.191,3.928c2.557,0,5.117,0,7.913,0c0,4.233,0,8.151,0,12.07c-1.333,0-2.666,0-3.999,0
			c-1.334,0-2.667,0-4,0c-5.333,0-10.665,0-15.998,0c-1.333,0-2.666,0-3.999,0C82.656,95.988,77.324,95.988,71.991,95.988z"/>
		<path fill-rule="evenodd" clip-rule="evenodd" fill="#800000" d="M107.986,111.986c0,1.161,0,2.324,0,3.85
			c-2.548,0.343-5.161,0.092-7.75,0.139c-2.636,0.048-5.271,0.011-7.92,0.011c-0.668-1.387-0.15-2.725-0.328-3.999
			c1.333,0,2.666,0,4,0c2.666,0,5.332,0,7.999,0C105.32,111.986,106.653,111.986,107.986,111.986z"/>
		<path fill-rule="evenodd" clip-rule="evenodd" fill="#BB3C3C" d="M87.989,103.987c0,1.25,0,2.501,0,3.999c-1.498,0-2.749,0-4,0
			c-1.333,0-2.666,0-3.999,0c-1.334,0-2.667,0-4,0c-1.333,0-2.666,0-4,0c0-1.333,0-2.667,0-3.999c1.333,0,2.667,0,4,0
			c2.666,0,5.333,0,7.999,0C85.322,103.987,86.655,103.987,87.989,103.987z"/>
		<path fill-rule="evenodd" clip-rule="evenodd" fill="#FEB669" d="M103.987,43.995c-4,0-7.999,0-11.999,0c0-2.667,0-5.333,0-7.999
			c1.333,0,2.666,0,4,0c0,1.16,0,2.32,0,3.663c2.484,0.82,5.134-0.03,7.74,0.479C104.322,41.386,103.813,42.721,103.987,43.995z"/>
		<path fill-rule="evenodd" clip-rule="evenodd" fill="#FEB669" d="M119.984,43.995c-3.999,0-7.998,0-11.998,0
			c0-2.667,0-5.333,0-7.999c1.333,0,2.666,0,4,0c0,1.16,0,2.32,0,3.663c2.484,0.82,5.134-0.03,7.74,0.479
			C120.32,41.386,119.811,42.721,119.984,43.995z"/>
		<path fill-rule="evenodd" clip-rule="evenodd" fill="#FEB669" d="M91.988,95.988c5.333,0,10.665,0,15.998,0
			c0,1.269,0,2.537,0,3.999c-4.198,0-8.099,0-11.998,0c-1.334,0-2.667,0-4,0C91.988,98.654,91.988,97.32,91.988,95.988z"/>
		<path fill-rule="evenodd" clip-rule="evenodd" fill="#FEB669" d="M71.991,95.988c5.333,0,10.666,0,15.999,0
			c0,1.332,0,2.666,0,3.999c-1.334,0-2.667,0-4,0c-2.666,0-5.333,0-7.999,0c-1.333,0-2.666,0-4,0
			C71.991,98.654,71.991,97.32,71.991,95.988z"/>
		<path fill-rule="evenodd" clip-rule="evenodd" fill="#FBF4C7" d="M43.995,27.997c0-1.161,0-2.323,0-3.881
			c1.898-0.039,3.824-0.095,5.75-0.113c1.971-0.021,3.941-0.005,5.921-0.005c0.665,1.388,0.151,2.725,0.327,4c-1.333,0-2.667,0-4,0
			c-1.333,0-2.666,0-3.999,0C46.661,27.997,45.328,27.997,43.995,27.997z"/>
		<path fill-rule="evenodd" clip-rule="evenodd" fill="#FEB669" d="M55.993,95.988c3.999,0,7.999,0,11.998,0
			c0,1.332,0,2.666,0,3.999c-1.333,0-2.666,0-4,0c-1.333,0-2.666,0-4,0c-1.333,0-2.666,0-3.999,0
			C55.993,98.654,55.993,97.32,55.993,95.988z"/>
		<path fill-rule="evenodd" clip-rule="evenodd" fill="#FBF4C7" d="M91.988,27.997c0-1.15,0-2.301,0-3.739
			c1.829-0.497,3.766-0.201,5.662-0.25c1.963-0.05,3.929-0.011,5.944-0.011c0.622,1.243,0.432,2.481,0.183,4c-2.6,0-5.194,0-7.789,0
			C94.654,27.997,93.321,27.997,91.988,27.997z"/>
		<path fill-rule="evenodd" clip-rule="evenodd" fill="#FEB669" d="M39.995,99.987c0-1.15,0-2.301,0-3.738
			c1.829-0.497,3.765-0.201,5.662-0.25c1.963-0.05,3.929-0.011,5.944-0.011c0.623,1.242,0.432,2.48,0.183,3.999
			c-2.6,0-5.195,0-7.79,0C42.661,99.987,41.328,99.987,39.995,99.987z"/>
		<path fill-rule="evenodd" clip-rule="evenodd" fill="#FED486" d="M55.993,31.996c0,1.268,0,2.537,0,4c-2.853,0-5.426,0-7.999,0
			c-1.333,0-2.667,0-4,0c0-1.333,0-2.667,0-4c1.333,0,2.666,0,4,0c1.333,0,2.666,0,3.999,0
			C53.327,31.996,54.66,31.996,55.993,31.996z"/>
		<path fill-rule="evenodd" clip-rule="evenodd" fill="#800000" d="M67.991,111.986c0,1.16,0,2.322,0,3.881
			c-1.898,0.039-3.824,0.095-5.75,0.113c-1.971,0.021-3.941,0.005-5.921,0.005c-0.665-1.389-0.151-2.726-0.327-3.999
			c1.333,0,2.666,0,3.999,0c1.333,0,2.667,0,4,0C65.325,111.986,66.658,111.986,67.991,111.986z"/>
		<path fill-rule="evenodd" clip-rule="evenodd" fill="#800000" d="M115.985,111.986c2.595,0,5.189,0,7.887,0
			c0,1.381,0,2.487,0,3.797c-3.84,0-7.704,0-11.886,0c0-1.251,0-2.524,0-3.797C113.319,111.986,114.652,111.986,115.985,111.986z"/>
		<path fill-rule="evenodd" clip-rule="evenodd" fill="#FEB669" d="M111.986,95.988c1.333,0,2.666,0,3.999,0
			c2.488,0,4.978,0,7.534,0c0.837,1.146,0.413,2.423,0.323,3.999c-2.63,0-5.243,0-7.857,0c-1.333,0-2.666,0-3.999,0
			C111.986,98.654,111.986,97.32,111.986,95.988z"/>
		<path fill-rule="evenodd" clip-rule="evenodd" fill="#FEB669" d="M43.995,35.996c1.333,0,2.666,0,4,0c0,2.667,0,5.332,0,7.999
			c-1.333,0-2.667,0-4,0C43.995,41.328,43.995,38.662,43.995,35.996z"/>
		<path fill-rule="evenodd" clip-rule="evenodd" fill="#FEB669" d="M63.992,43.995c-1.333,0-2.666,0-4,0c0-2.667,0-5.333,0-7.999
			c1.333,0,2.667,0,4,0C63.992,38.662,63.992,41.328,63.992,43.995z"/>
		<path fill-rule="evenodd" clip-rule="evenodd" fill="#BB3C3C" d="M39.995,107.986c0-1.333,0-2.667,0-3.999c1.333,0,2.666,0,4,0
			c1.158,0,2.315,0,3.54,0c0.829,1.146,0.407,2.421,0.336,3.732c-1.273,0.597-2.604,0.095-3.876,0.267
			C42.661,107.986,41.328,107.986,39.995,107.986z"/>
		<path fill-rule="evenodd" clip-rule="evenodd" fill="#BB3C3C" d="M103.987,107.986c-1.274,0-2.548,0-3.899,0
			c0-1.4,0-2.502,0-3.801c2.528,0,5.062,0,7.898,0c0,1.265,0,2.532,0,3.801C106.653,107.986,105.32,107.986,103.987,107.986z"/>
		<path fill-rule="evenodd" clip-rule="evenodd" fill="#BB3C3C" d="M115.985,103.987c1.158,0,2.315,0,3.486,0
			c1.188,1.116,0.095,2.457,0.631,3.619c-1.515,0.71-2.846,0.208-4.117,0.38c-1.333,0-2.666,0-3.999,0c0-1.333,0-2.667,0-3.999
			C113.319,103.987,114.652,103.987,115.985,103.987z"/>
		<path fill-rule="evenodd" clip-rule="evenodd" fill="#FED486" d="M95.988,35.996c-1.334,0-2.667,0-4,0c0-1.333,0-2.667,0-4
			c1.333,0,2.666,0,4,0c1.157,0,2.315,0,3.539,0c0.83,1.146,0.407,2.421,0.337,3.733C98.591,36.326,97.26,35.824,95.988,35.996z"/>
		<path fill-rule="evenodd" clip-rule="evenodd" fill="#FBF4C7" d="M59.992,27.997c0-1.158,0-2.316,0-3.54
			c1.146-0.829,2.422-0.407,3.733-0.337c0.597,1.274,0.095,2.604,0.266,3.876C62.659,27.997,61.326,27.997,59.992,27.997z"/>
		<path fill-rule="evenodd" clip-rule="evenodd" fill="#FBF4C7" d="M71.849,27.854c-1.121,0-2.384,0-3.75,0c0-1.239,0-2.337,0-3.54
			c1.149-0.543,2.377-0.346,3.75-0.139C71.849,25.47,71.849,26.731,71.849,27.854z"/>
		<path fill-rule="evenodd" clip-rule="evenodd" fill="#FBF4C7" d="M84.132,27.854c0-1.126,0-2.395,0-3.75c1.238,0,2.337,0,3.498,0
			c0.902,1.131-0.015,2.4,0.549,3.75C86.516,27.854,85.253,27.854,84.132,27.854z"/>
		<path fill-rule="evenodd" clip-rule="evenodd" fill="#FBF4C7" d="M107.986,27.997c0-1.158,0-2.316,0-3.486
			c1.116-1.188,2.458-0.095,3.62-0.632c0.71,1.515,0.208,2.845,0.38,4.118C110.652,27.997,109.319,27.997,107.986,27.997z"/>
		<path fill-rule="evenodd" clip-rule="evenodd" fill="#FEF2A4" d="M47.994,31.996c-1.333,0-2.667,0-4,0c0-1.333,0-2.667,0-4
			c1.333,0,2.666,0,4,0C47.994,29.329,47.994,30.663,47.994,31.996z"/>
		<path fill-rule="evenodd" clip-rule="evenodd" fill="#FEF2A4" d="M55.993,31.996c-1.333,0-2.667,0-4,0c0-1.333,0-2.667,0-4
			c1.333,0,2.667,0,4,0C55.993,29.329,55.993,30.663,55.993,31.996z"/>
		<path fill-rule="evenodd" clip-rule="evenodd" fill="#FEF2A4" d="M71.991,27.997c1.251,0,2.502,0,4,0c0,1.497,0,2.749,0,4
			c-1.25,0-2.502,0-4,0C71.991,30.499,71.991,29.247,71.991,27.997z"/>
		<path fill-rule="evenodd" clip-rule="evenodd" fill="#FEF2A4" d="M79.99,31.996c0-1.251,0-2.503,0-4c1.497,0,2.748,0,3.999,0
			c0,1.25,0,2.502,0,4C82.492,31.996,81.24,31.996,79.99,31.996z"/>
		<path fill-rule="evenodd" clip-rule="evenodd" fill="#FEF2A4" d="M95.988,31.996c-1.334,0-2.667,0-4,0c0-1.333,0-2.667,0-4
			c1.333,0,2.666,0,4,0C95.988,29.329,95.988,30.663,95.988,31.996z"/>
		<path fill-rule="evenodd" clip-rule="evenodd" fill="#FEB669" d="M87.989,43.995c-1.334,0-2.667,0-4,0c0-1.333,0-2.667,0-4
			c1.251,0,2.502,0,4,0C87.989,41.493,87.989,42.744,87.989,43.995z"/>
		<path fill-rule="evenodd" clip-rule="evenodd" fill="#FEB669" d="M71.991,43.995c-1.333,0-2.666,0-4,0c0-1.251,0-2.502,0-4
			c1.498,0,2.749,0,4,0C71.991,41.328,71.991,42.662,71.991,43.995z"/>
		<path fill-rule="evenodd" clip-rule="evenodd" fill="#FEB669" d="M79.99,35.996c1.25,0,2.502,0,3.999,0c0,1.498,0,2.749,0,4
			c-1.251,0-2.502,0-3.999,0C79.99,38.497,79.99,37.246,79.99,35.996z"/>
		<path fill-rule="evenodd" clip-rule="evenodd" fill="#FEB669" d="M71.991,39.995c0-1.251,0-2.502,0-4c1.498,0,2.749,0,4,0
			c0,1.25,0,2.501,0,4C74.493,39.995,73.242,39.995,71.991,39.995z"/>
		<path fill-rule="evenodd" clip-rule="evenodd" fill="#FE9800" d="M43.995,103.987c-1.333,0-2.667,0-4,0c0-1.333,0-2.667,0-4
			c1.333,0,2.666,0,4,0C43.995,101.32,43.995,102.654,43.995,103.987z"/>
		<path fill-rule="evenodd" clip-rule="evenodd" fill="#FE9800" d="M55.993,99.987c1.333,0,2.666,0,3.999,0c0,1.333,0,2.667,0,4
			c-1.333,0-2.666,0-3.999,0C55.993,102.654,55.993,101.32,55.993,99.987z"/>
		<path fill-rule="evenodd" clip-rule="evenodd" fill="#FEF2A4" d="M59.992,27.997c1.333,0,2.667,0,4,0c0,1.333,0,2.667,0,4
			c-1.333,0-2.666,0-4,0C59.992,30.663,59.992,29.329,59.992,27.997z"/>
		<path fill-rule="evenodd" clip-rule="evenodd" fill="#FE9800" d="M63.992,99.987c1.333,0,2.667,0,4,0c0,1.333,0,2.667,0,4
			c-1.333,0-2.666,0-4,0C63.992,102.654,63.992,101.32,63.992,99.987z"/>
		<path fill-rule="evenodd" clip-rule="evenodd" fill="#FE9800" d="M71.991,99.987c1.333,0,2.667,0,4,0c0,1.333,0,2.667,0,4
			c-1.333,0-2.666,0-4,0C71.991,102.654,71.991,101.32,71.991,99.987z"/>
		<path fill-rule="evenodd" clip-rule="evenodd" fill="#FE9800" d="M83.989,99.987c1.333,0,2.666,0,4,0c0,1.333,0,2.667,0,4
			c-1.334,0-2.667,0-4,0C83.989,102.654,83.989,101.32,83.989,99.987z"/>
		<path fill-rule="evenodd" clip-rule="evenodd" fill="#FED486" d="M111.986,35.996c-1.334,0-2.667,0-4,0c0-1.333,0-2.667,0-4
			c1.333,0,2.666,0,4,0C111.986,33.329,111.986,34.663,111.986,35.996z"/>
		<path fill-rule="evenodd" clip-rule="evenodd" fill="#FE9800" d="M115.985,103.987c-1.333,0-2.666,0-3.999,0c0-1.333,0-2.667,0-4
			c1.333,0,2.666,0,3.999,0C115.985,101.32,115.985,102.654,115.985,103.987z"/>
		<path fill-rule="evenodd" clip-rule="evenodd" fill="#BB3C3C" d="M55.993,103.987c1.333,0,2.666,0,3.999,0
			c0,1.332,0,2.666,0,3.999c-1.333,0-2.666,0-3.999,0C55.993,106.653,55.993,105.319,55.993,103.987z"/>
		<path fill-rule="evenodd" clip-rule="evenodd" fill="#BB3C3C" d="M63.992,103.987c1.333,0,2.667,0,4,0c0,1.332,0,2.666,0,3.999
			c-1.333,0-2.666,0-4,0C63.992,106.653,63.992,105.319,63.992,103.987z"/>
		<path fill-rule="evenodd" clip-rule="evenodd" fill="#FED486" d="M75.99,31.996c1.333,0,2.666,0,4,0c0,1.333,0,2.667,0,4
			c-1.334,0-2.667,0-4,0C75.99,34.663,75.99,33.329,75.99,31.996z"/>
		<path fill-rule="evenodd" clip-rule="evenodd" fill="#BB3C3C" d="M91.988,107.986c0-1.333,0-2.667,0-3.999c1.333,0,2.666,0,4,0
			c0,1.332,0,2.666,0,3.999C94.654,107.986,93.321,107.986,91.988,107.986z"/>
		<path fill-rule="evenodd" clip-rule="evenodd" fill="#1E1E1E" d="M99.987,75.99c0,1.333,0,2.667,0,4c-1.251,0-2.502,0-3.999,0
			c0-1.498,0-2.749,0-4C97.321,75.99,98.654,75.99,99.987,75.99z"/>
		<path fill-rule="evenodd" clip-rule="evenodd" fill="#9D1E1E" d="M39.995,107.986c1.333,0,2.666,0,4,0c0,1.333,0,2.667,0,4
			c-1.333,0-2.667,0-4,0C39.995,110.653,39.995,109.319,39.995,107.986z"/>
		<path fill-rule="evenodd" clip-rule="evenodd" fill="#9D1E1E" d="M55.993,107.986c1.333,0,2.666,0,3.999,0c0,1.333,0,2.667,0,4
			c-1.333,0-2.666,0-3.999,0C55.993,110.653,55.993,109.319,55.993,107.986z"/>
		<path fill-rule="evenodd" clip-rule="evenodd" fill="#FE9800" d="M95.988,103.987c-1.334,0-2.667,0-4,0c0-1.333,0-2.667,0-4
			c1.333,0,2.666,0,4,0C95.988,101.32,95.988,102.654,95.988,103.987z"/>
		<path fill-rule="evenodd" clip-rule="evenodd" fill="#9D1E1E" d="M71.991,107.986c1.333,0,2.667,0,4,0c0,1.333,0,2.667,0,4
			c-1.333,0-2.666,0-4,0C71.991,110.653,71.991,109.319,71.991,107.986z"/>
		<path fill-rule="evenodd" clip-rule="evenodd" fill="#9D1E1E" d="M79.99,107.986c1.333,0,2.666,0,3.999,0c0,1.333,0,2.667,0,4
			c-1.251,0-2.502,0-3.999,0C79.99,110.488,79.99,109.237,79.99,107.986z"/>
		<path fill-rule="evenodd" clip-rule="evenodd" fill="#9D1E1E" d="M91.988,107.986c1.333,0,2.666,0,4,0c0,1.333,0,2.667,0,4
			c-1.334,0-2.667,0-4,0C91.988,110.653,91.988,109.319,91.988,107.986z"/>
		<path fill-rule="evenodd" clip-rule="evenodd" fill="#9D1E1E" d="M103.987,107.986c1.333,0,2.666,0,3.999,0c0,1.333,0,2.667,0,4
			c-1.333,0-2.666,0-3.999,0C103.987,110.653,103.987,109.319,103.987,107.986z"/>
		<path fill-rule="evenodd" clip-rule="evenodd" fill="#9D1E1E" d="M111.986,107.986c1.333,0,2.666,0,3.999,0c0,1.333,0,2.667,0,4
			c-1.333,0-2.666,0-3.999,0C111.986,110.653,111.986,109.319,111.986,107.986z"/>
		<path fill-rule="evenodd" clip-rule="evenodd" fill="#800000" d="M39.995,111.986c1.333,0,2.666,0,4,0c0,1.157,0,2.315,0,3.539
			c-1.146,0.829-2.422,0.407-3.733,0.337C39.665,114.588,40.167,113.258,39.995,111.986z"/>
		<path fill-rule="evenodd" clip-rule="evenodd" fill="#FED486" d="M59.992,31.996c1.333,0,2.667,0,4,0c0,1.333,0,2.667,0,4
			c-1.333,0-2.666,0-4,0C59.992,34.663,59.992,33.329,59.992,31.996z"/>
		<path fill-rule="evenodd" clip-rule="evenodd" fill="#800000" d="M71.991,111.986c1.333,0,2.667,0,4,0c0,1.157,0,2.315,0,3.485
			c-1.116,1.188-2.458,0.095-3.62,0.632C71.66,114.588,72.163,113.258,71.991,111.986z"/>
		<path fill-rule="evenodd" clip-rule="evenodd" fill="#800000" d="M84.132,112.128c1.121,0,2.384,0,3.749,0c0,1.239,0,2.337,0,3.54
			c-1.149,0.543-2.377,0.346-3.749,0.139C84.132,114.512,84.132,113.249,84.132,112.128z"/>
		<path fill-rule="evenodd" clip-rule="evenodd" fill="#FEF2A4" d="M111.986,31.996c-1.334,0-2.667,0-4,0c0-1.333,0-2.667,0-4
			c1.333,0,2.666,0,4,0C111.986,29.329,111.986,30.663,111.986,31.996z"/>
		<path fill-rule="evenodd" clip-rule="evenodd" fill="#9D1E1E" d="M63.992,107.986c1.333,0,2.667,0,4,0c0,1.333,0,2.667,0,4
			c-1.333,0-2.666,0-4,0C63.992,110.653,63.992,109.319,63.992,107.986z"/>
		<path fill-rule="evenodd" clip-rule="evenodd" fill="#3C3C3C" d="M99.987,87.989c-9.231,0-18.464,0-27.861,0
			c0,1.306,0,2.414,0,3.765c-4.037,0-7.919,0-11.868,0c-0.576-0.998-0.14-2.161-0.297-3.603c2.58,0,5.143,0,7.631,0
			c0.729-1.561,0.228-2.891,0.399-4.162c1.166,0,2.332,0,3.849,0c0-2.554,0-5.133,0-7.874c4.129,0,7.914,0,11.694,0
			c0.673-1.377,0.521-2.624,0.243-4.05c-6.487,0-12.936,0-19.245,0c-1.063-1.275-0.223-2.716-0.684-4.052c-2.605,0-5.06,0-7.855,0
			c0-4.117,0-8.069,0-12.021c5.333,0,10.665,0,15.998,0c1.333,0,2.667,0,4,0c5.338-0.034,10.681,0.069,15.998-0.054
			c0-1.647,0-2.797,0-3.946c2.666,0,5.333,0,7.999,0c0,1.263,0,2.526,0,4c2.853,0,5.426,0,7.999,0c0,1.333,0,2.667,0,3.999
			c-1.268,0-2.536,0-3.621,0c-0.854,1.434,0.234,2.885-0.959,4.103c-0.973,0-2.075,0-3.419,0c0,2.729,0,5.312,0,7.896
			c-1.333,0-2.666,0-3.999,0c-2.612,0-5.224,0-7.85,0c-0.109,1.57-0.509,2.844,0.304,3.999c1.226,0,2.386,0,3.546,0
			c0,2.586,0,5.172,0,7.999c2.828,0,5.413,0,7.999,0C99.987,85.322,99.987,86.656,99.987,87.989z"/>
		<path fill-rule="evenodd" clip-rule="evenodd" fill="#787878" d="M99.987,51.993c-2.666,0-5.333,0-7.999,0
			c-5.333,0-10.665,0-15.998,0c0-1.333,0-2.667,0-3.999c7.999,0,15.998,0,23.997,0C99.987,49.327,99.987,50.661,99.987,51.993z"/>
		<path fill-rule="evenodd" clip-rule="evenodd" fill="#787878" d="M111.986,47.994c2.573,0,5.146,0,7.998,0
			c0,1.473,0,2.737,0,3.999c-1.25,0-2.502,0-3.999,0c0,1.498,0,2.749,0,4c-1.333,0-2.666,0-3.999,0c-1.334,0-2.667,0-4,0
			c0-1.333,0-2.667,0-4c1.251,0,2.502,0,4,0C111.986,50.496,111.986,49.245,111.986,47.994z"/>
		<path fill-rule="evenodd" clip-rule="evenodd" fill="#5A5A5A" d="M71.991,55.993c-5.333,0-10.665,0-15.998,0c0-1.333,0-2.667,0-4
			c1.333,0,2.666,0,3.999,0c2.667,0,5.333,0,7.999,0c1.333,0,2.667,0,4,0C71.991,53.326,71.991,54.66,71.991,55.993z"/>
		<path fill-rule="evenodd" clip-rule="evenodd" fill="#787878" d="M39.995,59.992c-1.333,0-2.667,0-4,0c0-1.333,0-2.667,0-3.999
			c5.229,0,10.458,0,15.998,0c0,1.454,0,2.727,0,3.999C47.994,59.992,43.995,59.992,39.995,59.992z"/>
		<path fill-rule="evenodd" clip-rule="evenodd" fill="#5A5A5A" d="M99.987,71.991c0-2.584,0-5.167,0-7.896c1.344,0,2.446,0,3.419,0
			c1.193-1.218,0.105-2.669,0.959-4.103c1.085,0,2.354,0,3.621,0c0,2.584,0,5.167,0,7.896c-1.344,0-2.446,0-3.419,0
			c-1.193,1.219-0.105,2.67-0.959,4.104C102.523,71.991,101.255,71.991,99.987,71.991z"/>
		<path fill-rule="evenodd" clip-rule="evenodd" fill="#3C3C3C" d="M75.99,35.996c1.333,0,2.666,0,4,0c0,1.25,0,2.501,0,4
			c1.497,0,2.748,0,3.999,0c0,1.333,0,2.667,0,4c-3.999,0-7.999,0-11.999,0c0-1.333,0-2.667,0-4c1.251,0,2.502,0,4,0
			C75.99,38.497,75.99,37.246,75.99,35.996z"/>
		<path fill-rule="evenodd" clip-rule="evenodd" fill="#3C3C3C" d="M39.995,59.992c4,0,7.999,0,11.998,0c0,1.161,0,2.323,0,3.881
			c-1.898,0.039-3.824,0.095-5.75,0.113c-1.971,0.021-3.941,0.005-5.921,0.005C39.657,62.604,40.171,61.267,39.995,59.992z"/>
		<path fill-rule="evenodd" clip-rule="evenodd" fill="#3C3C3C" d="M111.986,47.994c0,1.25,0,2.501,0,3.999c-1.498,0-2.749,0-4,0
			c-2.666,0-5.333,0-7.999,0c0-1.333,0-2.667,0-3.999C103.987,47.994,107.986,47.994,111.986,47.994z"/>
		<path fill-rule="evenodd" clip-rule="evenodd" fill="#787878" d="M59.992,51.993c-1.333,0-2.666,0-3.999,0
			c-2.491,0-4.981,0-7.54,0c-0.823-1.152-0.416-2.427-0.311-3.999c3.963,0,7.906,0,11.85,0
			C59.992,49.327,59.992,50.661,59.992,51.993z"/>
		<path fill-rule="evenodd" clip-rule="evenodd" fill="#3C3C3C" d="M59.992,51.993c0-1.333,0-2.667,0-3.999c2.667,0,5.333,0,7.999,0
			c0,1.333,0,2.667,0,3.999C65.325,51.993,62.659,51.993,59.992,51.993z"/>
		<path fill-rule="evenodd" clip-rule="evenodd" fill="#3C3C3C" d="M75.99,47.994c0,1.333,0,2.667,0,3.999c-1.333,0-2.666,0-4,0
			c0-1.333,0-2.667,0-3.999C73.324,47.994,74.657,47.994,75.99,47.994z"/>
		<path fill-rule="evenodd" clip-rule="evenodd" fill="#3C3C3C" d="M115.985,55.993c0-1.251,0-2.502,0-4c1.497,0,2.749,0,3.999,0
			c0,1.251,0,2.502,0,4C118.487,55.993,117.236,55.993,115.985,55.993z"/>
		<path fill-rule="evenodd" clip-rule="evenodd" fill="#5A5A5A" d="M107.986,55.993c1.333,0,2.666,0,4,0c0,1.25,0,2.501,0,3.999
			c-1.498,0-2.749,0-4,0C107.986,58.66,107.986,57.326,107.986,55.993z"/>
		<path fill-rule="evenodd" clip-rule="evenodd" fill="#787878" d="M71.991,47.994c0,1.333,0,2.667,0,3.999c-1.333,0-2.666,0-4,0
			c0-1.333,0-2.667,0-3.999C69.325,47.994,70.658,47.994,71.991,47.994z"/>
		<path fill-rule="evenodd" clip-rule="evenodd" fill="#5A5A5A" d="M35.996,55.993c0,1.333,0,2.667,0,3.999c-1.158,0-2.316,0-3.46,0
			c-0.705-0.428-0.527-1.121-0.537-1.751c-0.01-0.639-0.002-1.277-0.002-1.924C33.393,55.663,34.724,56.165,35.996,55.993z"/>
		<path fill-rule="evenodd" clip-rule="evenodd" fill="#5A5A5A" d="M95.988,71.991c1.333,0,2.666,0,3.999,0c0,1.333,0,2.666,0,3.999
			c-1.333,0-2.666,0-3.999,0C95.988,74.657,95.988,73.324,95.988,71.991z"/>
		<path fill-rule="evenodd" clip-rule="evenodd" fill="#5A5A5A" d="M99.987,83.989c-2.586,0-5.171,0-7.999,0
			c0-2.827,0-5.413,0-7.999c1.333,0,2.666,0,4,0c0,1.251,0,2.502,0,4c1.497,0,2.748,0,3.999,0
			C99.987,81.322,99.987,82.656,99.987,83.989z"/>
		<path fill-rule="evenodd" clip-rule="evenodd" fill="#5A5A5A" d="M103.987,87.989c2.488,0,4.977,0,7.534,0
			c0.836,1.146,0.413,2.423,0.322,3.999c-2.629,0-5.243,0-7.856,0C103.987,90.655,103.987,89.321,103.987,87.989z"/>
		<path fill-rule="evenodd" clip-rule="evenodd" fill="#5A5A5A" d="M99.987,87.989c0-1.333,0-2.667,0-4c1.251,0,2.502,0,4,0
			c0,1.498,0,2.749,0,4C102.653,87.989,101.32,87.989,99.987,87.989z"/>
		<path fill-rule="evenodd" clip-rule="evenodd" fill="#3C3C3C" d="M99.987,87.989c1.333,0,2.666,0,4,0c0,1.332,0,2.666,0,3.999
			c-1.251,0-2.503,0-4,0C99.987,90.49,99.987,89.239,99.987,87.989z"/>
		<path fill-rule="evenodd" clip-rule="evenodd" fill="#3C3C3C" d="M83.989,99.987c0,1.333,0,2.667,0,4c-2.666,0-5.333,0-7.999,0
			c0-1.333,0-2.667,0-4C78.656,99.987,81.323,99.987,83.989,99.987z"/>
		<path fill-rule="evenodd" clip-rule="evenodd" fill="#3C3C3C" d="M51.993,27.997c0,1.333,0,2.667,0,4c-1.333,0-2.666,0-3.999,0
			c0-1.333,0-2.667,0-4C49.327,27.997,50.66,27.997,51.993,27.997z"/>
		<path fill-rule="evenodd" clip-rule="evenodd" fill="#3C3C3C" d="M63.992,107.986c0,1.333,0,2.667,0,4c-1.333,0-2.666,0-4,0
			c0-1.333,0-2.667,0-4s0-2.667,0-3.999c0-1.333,0-2.667,0-4c1.333,0,2.667,0,4,0c0,1.333,0,2.667,0,4
			C63.992,105.319,63.992,106.653,63.992,107.986z"/>
		<path fill-rule="evenodd" clip-rule="evenodd" fill="#5A5A5A" d="M75.99,51.993c5.333,0,10.665,0,15.998,0
			c0,1.149,0,2.299,0,3.946c-5.317,0.123-10.66,0.02-15.998,0.054C75.99,54.66,75.99,53.326,75.99,51.993z"/>
		<path fill-rule="evenodd" clip-rule="evenodd" fill="#5A5A5A" d="M99.987,51.993c2.666,0,5.333,0,7.999,0c0,1.333,0,2.667,0,4
			c-2.573,0-5.146,0-7.999,0C99.987,54.52,99.987,53.256,99.987,51.993z"/>
		<path fill-rule="evenodd" clip-rule="evenodd" fill="#1E1E1E" d="M95.988,75.99c-1.334,0-2.667,0-4,0c-1.16,0-2.32,0-3.546,0
			c-0.813-1.155-0.413-2.429-0.304-3.999c2.626,0,5.237,0,7.85,0C95.988,73.324,95.988,74.657,95.988,75.99z"/>
		<path fill-rule="evenodd" clip-rule="evenodd" fill="#787878" d="M75.99,51.993c0,1.333,0,2.667,0,4c-1.333,0-2.666,0-4,0
			c0-1.333,0-2.667,0-4C73.324,51.993,74.657,51.993,75.99,51.993z"/>
	</g>
</g>
</svg>
