<?xml version="1.0" encoding="utf-8"?>
<!-- Generator: Adobe Illustrator 16.0.0, SVG Export Plug-In . SVG Version: 6.00 Build 0)  -->
<!DOCTYPE svg PUBLIC "-//W3C//DTD SVG 1.1//EN" "http://www.w3.org/Graphics/SVG/1.1/DTD/svg11.dtd">
<svg version="1.1" id="Layer_1" xmlns="http://www.w3.org/2000/svg" xmlns:xlink="http://www.w3.org/1999/xlink" x="0px" y="0px"
	 width="215.973px" height="168.979px" viewBox="0 0 215.973 168.979" enable-background="new 0 0 215.973 168.979"
	 xml:space="preserve">
<g>
	<g>
		<path fill-rule="evenodd" clip-rule="evenodd" fill="none" d="M217.973,170.979c-72.324,0-144.648,0-216.973,0
			C1,114.318,1,57.66,1,1c72.324,0,144.648,0,216.973,0C217.973,57.66,217.973,114.318,217.973,170.979z M103.987,48.994
			c-1.28,0-2.559,0-4.041,0c0.085,1.57,0.152,2.795,0.218,4c1.507,0,2.665,0,3.823,0c0,1.251,0,2.502,0,4c1.498,0,2.749,0,4,0
			c0,1.251,0,2.501,0,4c1.497,0,2.749,0,3.999,0c0,1.251,0,2.501,0,4c1.498,0,2.749,0,4,0c0,1.333,0,2.667,0,4
			c-14.6,0-29.2,0-44.147,0c0,2.873,0,5.449,0,8.152c-14.783,0-29.216,0-43.865,0c0.098,2.726-0.125,5.304,0.154,7.846
			c1.54,0,2.704,0,3.869,0c0,1.27,0,2.538,0,3.999c4.198,0,8.099,0,11.999,0c0,1.27,0,2.538,0,4c4.198,0,8.098,0,11.998,0
			c0,1.263,0,2.526,0,3.999c2.853,0,5.426,0,7.999,0c0,1.273,0,2.547,0,4.09c5.498,0,10.688,0,15.837,0
			c0.143,1.5,0.259,2.721,0.372,3.909c1.488,0,2.638,0,3.789,0c0,2.667,0,5.333,0,7.999c-6.669,0.034-13.343-0.071-19.998,0.064
			c0,1.631,0,2.783,0,3.936c-1.25,0-2.502,0-4,0c0,1.498,0,2.748,0,3.999c-1.285,0-2.57,0-4,0c0,9.308-0.001,18.269,0.007,27.229
			c0,0.145,0.078,0.305,0.163,0.427c0.091,0.133,0.233,0.229,0.173,0.174c7.952,0,15.724,0,23.474,0
			c0.156-1.4,0.292-2.634,0.408-3.675c18.745,0,37.164,0,55.592,0c0.152,1.395,0.288,2.635,0.402,3.675c8.065,0,15.838,0,23.768,0
			c0-9.127,0.001-18.086-0.006-27.045c0-0.146-0.072-0.306-0.152-0.433c-0.086-0.138-0.221-0.245-0.321-0.352
			c-1.191,0-2.355,0-3.52,0c0-1.251,0-2.501,0-3.999c-1.498,0-2.749,0-4,0c0-1.283,0-2.567,0-4c-2.313,0-4.284,0.015-6.256-0.004
			c-1.924-0.02-3.848-0.073-5.742-0.111c0-2.902,0-5.393,0-7.884c1.251,0,2.502,0,3.999,0c0-1.498,0-2.748,0-3.999
			c2.573,0,5.147,0,7.999,0c0-1.474,0-2.737,0-4c2.573,0,5.147,0,7.999,0c0-1.473,0-2.736,0-3.999c1.286,0,2.571,0,3.813,0
			c0.164-1.579,0.293-2.81,0.437-4.189c8.093,0,15.863,0,23.641,0c0-6.633,0-13.077,0-19.808c-20.032,0-39.959,0-59.887,0
			c0-1.333,0-2.667,0-4c1.251,0,2.503,0,4,0c0-1.498,0-2.749,0-4c1.251,0,2.502,0,3.999,0c0-1.498,0-2.749,0-4c1.251,0,2.502,0,4,0
			c0-1.498,0-2.749,0.142-4.142c1.122,0,2.384,0,3.646,0c0-1.358,0-2.571,0-3.75c-1.313,0-2.408,0-3.646,0
			c0,1.366,0,2.628-0.142,3.892c-1.251,0-2.502,0-4,0c0,1.498,0,2.749,0,4c-1.333,0-2.666,0-3.999,0s-2.666,0-4,0
			c0-1.333,0-2.667,0-4c0-1.333,0-2.667,0-4c1.287,0,2.574,0,3.815,0c0.164-1.582,0.291-2.811,0.436-4.206c1.443,0,2.554,0,3.653,0
			c0.075-1.326,0.139-2.447,0.207-3.663c1.39-0.11,2.637-0.21,4.034-0.322c0-1.397,0-2.516,0-3.624
			c1.411-0.161,2.648-0.302,4.044-0.461c0-1.379,0-2.494,0-3.636c1.309-0.069,2.43-0.129,3.896-0.206c0-1.352,0-2.588,0-3.999
			c1.474,0,2.59,0,3.941,0c-0.069-1.426-0.131-2.663-0.19-3.881c-1.507,0-2.673,0-3.839,0c0-1.28,0-2.56,0-4.041
			c-1.577,0.086-2.798,0.152-4,0.218c0,1.507,0,2.665,0,3.823c-1.251,0-2.502,0-3.999,0c0,1.497,0,2.749,0,3.999
			c-1.251,0-2.502,0-4,0c0,1.497,0,2.749,0,4c-1.251,0-2.502,0-3.999,0c0,1.498,0,2.749,0,4c-1.251,0-2.502,0-4,0
			c0,1.498,0,2.749,0,4c-1.333,0-2.666,0-3.999,0c0-1.282,0-2.563,0-4.044c-1.575,0.092-2.799,0.163-4,0.233
			c0,2.839,0,5.325,0,7.811c-1.333,0-2.666,0-3.999,0c0-1.28,0-2.559,0-4.041c-1.57,0.085-2.796,0.151-4,0.218
			c0,1.507,0,2.665,0,3.823c-1.25,0-2.502,0-3.999,0c0,1.498,0,2.749,0,4C106.653,48.994,105.32,48.994,103.987,48.994z
			 M151.98,44.994c1.28,0,2.56,0,4.041,0c-0.085-1.57-0.152-2.795-0.218-4c-1.508,0-2.665,0-3.823,0c0-1.28,0-2.559,0-4.041
			c-1.57,0.085-2.795,0.151-3.999,0.218c0,1.507,0,2.665,0,3.823c-1.28,0-2.56,0-4.041,0c0.085,1.57,0.152,2.796,0.218,4
			c1.508,0,2.665,0,3.823,0c0,1.28,0,2.56,0,4.041c1.569-0.085,2.795-0.151,3.999-0.218C151.98,47.311,151.98,46.152,151.98,44.994z
			 M95.988,44.994c1.28,0,2.559,0,4.041,0c-0.085-1.57-0.152-2.795-0.218-4c-1.508,0-2.665,0-3.823,0c0-1.28,0-2.559,0-4.041
			c-1.57,0.085-2.795,0.151-4,0.218c0,1.507,0,2.665,0,3.823c-1.28,0-2.559,0-4.041,0c0.085,1.57,0.152,2.796,0.218,4
			c1.508,0,2.665,0,3.823,0c0,1.28,0,2.56,0,4.041c1.57-0.085,2.795-0.151,4-0.218C95.988,47.311,95.988,46.152,95.988,44.994z
			 M123.984,28.996c1.279,0,2.559,0,4.041,0c-0.086-1.57-0.152-2.795-0.218-3.999c-1.508,0-2.665,0-3.823,0c0-1.28,0-2.56,0-4.041
			c-1.576,0.086-2.798,0.152-4,0.218c0,1.507,0,2.665,0,3.823c-1.279,0-2.559,0-4.041,0c0.086,1.57,0.152,2.795,0.218,3.999
			c1.508,0,2.666,0,3.823,0c0,1.28,0,2.56,0,4.041c1.57-0.085,2.796-0.151,4-0.218C123.984,31.313,123.984,30.154,123.984,28.996z"
			/>
		<path fill-rule="evenodd" clip-rule="evenodd" d="M155.98,120.984c1.164,0,2.328,0,3.52,0c0.101,0.106,0.235,0.214,0.321,0.352
			c0.08,0.127,0.152,0.287,0.152,0.433c0.007,8.959,0.006,17.918,0.006,27.045c-7.93,0-15.702,0-23.768,0
			c-0.114-1.04-0.25-2.28-0.402-3.675c-18.429,0-36.847,0-55.592,0c-0.116,1.041-0.252,2.274-0.408,3.675c-7.75,0-15.521,0-23.474,0
			c0.06,0.056-0.082-0.041-0.173-0.174c-0.084-0.122-0.163-0.282-0.163-0.427c-0.008-8.96-0.007-17.921-0.007-27.229
			c1.429,0,2.715,0,4,0c0,4,0,7.999,0,11.999c0,1.333,0,2.666,0,3.999c0,2.617,0,5.234,0,7.999c2.973,0,5.611,0.038,8.248-0.011
			c2.59-0.048,5.204,0.209,7.75-0.143c0-2.859,0-5.353,0-7.846c0-1.333,0-2.666,0-3.999c14.665,0,29.33,0,43.994,0
			c6.666,0,13.332,0,19.998,0c0,1.333,0,2.666,0,3.999c0,2.617,0,5.234,0,7.999c2.973,0,5.611,0.038,8.248-0.011
			c2.589-0.048,5.203,0.209,7.75-0.143c0-2.859,0-5.353,0-7.846c0-1.333,0-2.666,0-3.999c0-2.667,0-5.333,0-7.999
			C155.98,123.651,155.98,122.317,155.98,120.984z M135.887,136.982c-3.779,0-7.097,0.085-10.406-0.037
			c-1.544-0.058-1.578,0.746-1.493,1.818c0.06,0.752,0.146,1.502,0.2,2.043c4.124,0,7.891,0,11.699,0
			C135.887,139.516,135.887,138.403,135.887,136.982z"/>
		<path fill-rule="evenodd" clip-rule="evenodd" d="M127.983,68.991c19.928,0,39.854,0,59.887,0c0,6.73,0,13.174,0,19.808
			c-7.777,0-15.548,0-23.641,0c-0.144,1.38-0.272,2.61-0.437,4.189c-1.242,0-2.527,0-3.813,0c0-2.574,0-5.146,0-7.999
			c1.474,0,2.736,0,4,0c2.666,0,5.332,0,7.999,0c3.944,0,7.89,0,11.998,0c0-2.294,0.016-4.265-0.004-6.235
			c-0.021-1.931-0.076-3.86-0.116-5.763c-1.554,0-2.717,0-3.879,0c-2.667,0-5.333,0-7.999,0c-4,0-7.999,0-11.999,0
			c-1.333,0-2.666,0-3.999,0c-1.334,0-2.666,0-4,0c-9.332,0-18.664,0-27.996,0c-2.666,0-5.333,0-7.999,0c-1.333,0-2.666,0-4,0
			c-2.666,0-5.333,0-7.999,0c-9.271,0-18.54,0-28.036,0c0.08,1.556,0.144,2.788,0.214,4.164c8.112,0,15.884,0,23.849,0
			c-0.117,6.725,0.139,13.286-0.169,19.833c-1.53,0-2.693,0-3.857,0c0-1.332,0-2.666,0-3.999c0-3.94,0-7.879,0-11.999
			c-16.206,0-32.1,0-47.994,0c-5.338,0.034-10.681-0.069-15.998,0.054c0,1.647,0,2.796,0,3.946c-1.165,0-2.33,0-3.869,0
			c-0.28-2.542-0.057-5.12-0.154-7.846c14.649,0,29.083,0,43.865,0c0-2.704,0-5.28,0-8.152c14.947,0,29.547,0,44.147,0
			c1.251,0,2.502,0,3.999,0c0-1.498,0-2.749,0-4c1.334,0,2.667,0,4,0c0,1.251,0,2.501,0,4
			C125.481,68.991,126.732,68.991,127.983,68.991z"/>
		<path fill-rule="evenodd" clip-rule="evenodd" d="M139.982,104.986c0,2.491,0,4.981,0,7.884c1.895,0.038,3.818,0.092,5.742,0.111
			c1.972,0.019,3.943,0.004,6.256,0.004c0,1.433,0,2.717,0,4c-5.333,0-10.665,0-15.998,0c0-1.27,0-2.538,0-4
			c-4.198,0-8.099,0-11.998,0c-1.333,0-2.666,0-4,0c-3.999,0-7.999,0-11.998,0c-4,0-7.999,0-11.999,0s-7.999,0-11.999,0
			c0-2.666,0-5.332,0-7.999c1.284,0,2.567,0,3.806,0c0.17,1.575,0.302,2.806,0.431,4c5.467,0,10.613,0,15.761,0
			c5.333,0,10.666,0,15.998,0c1.334,0,2.667,0,4,0s2.666,0,3.999,0c2.612,0,5.224,0,7.808,0c0.171-1.558,0.307-2.795,0.439-4
			C137.662,104.986,138.822,104.986,139.982,104.986z"/>
		<path fill-rule="evenodd" clip-rule="evenodd" fill="#986633" d="M147.981,24.997c1.166,0,2.332,0,3.839,0
			c0.06,1.218,0.121,2.455,0.19,3.881c-1.352,0-2.468,0-3.941,0c0,1.41,0,2.646,0,3.999c-1.467,0.077-2.588,0.137-3.896,0.206
			c0,1.143,0,2.257,0,3.636c-1.396,0.159-2.633,0.3-4.044,0.461c0,1.107,0,2.227,0,3.624c-1.397,0.112-2.645,0.212-4.034,0.322
			c-0.068,1.216-0.132,2.337-0.207,3.663c-1.1,0-2.21,0-3.653,0c-0.145,1.395-0.271,2.624-0.436,4.206c-1.241,0-2.528,0-3.815,0
			c-1.333,0-2.666,0-3.999,0c0-1.333,0-2.667,0-4c1.251,0,2.502,0,3.999,0c0-1.498,0-2.749,0-4c1.251,0,2.503,0,4,0
			c0-1.498,0-2.749,0-4c1.251,0,2.502,0,3.999,0c0-1.498,0-2.749,0-4c1.251,0,2.502,0,4,0c0-1.497,0-2.749,0-4
			c1.251,0,2.502,0,3.999,0c0-1.497,0-2.749,0-3.999C145.315,24.997,146.647,24.997,147.981,24.997z"/>
		<path fill-rule="evenodd" clip-rule="evenodd" d="M83.989,104.986c-1.15,0-2.301,0-3.789,0c-0.113-1.188-0.229-2.409-0.372-3.909
			c-5.149,0-10.339,0-15.837,0c0-1.543,0-2.816,0-4.09c10.666,0,21.331,0,31.996,0c0,1.283,0,2.565,0,4
			c-2.307,0-4.278-0.016-6.248,0.005c-1.926,0.019-3.852,0.074-5.75,0.113C83.989,102.664,83.989,103.825,83.989,104.986z"/>
		<path fill-rule="evenodd" clip-rule="evenodd" fill="#FE9800" d="M123.984,44.994c0,1.333,0,2.667,0,4c0,1.333,0,2.667,0,4
			c0,1.333,0,2.667,0,4c0,1.333,0,2.667,0,4s0,2.667,0,4c-1.333,0-2.666,0-4,0c0-1.333,0-2.667,0-4c0-2.667,0-5.332,0-7.999
			c0-1.333,0-2.667,0-4c0-1.333,0-2.667,0-4c0-2.486,0-4.972,0-7.811c1.201-0.07,2.425-0.142,4-0.233c0,1.481,0,2.763,0,4.044
			C123.984,42.328,123.984,43.662,123.984,44.994z"/>
		<path fill-rule="evenodd" clip-rule="evenodd" d="M63.992,116.985c0-1.152,0-2.305,0-3.936c6.654-0.136,13.328-0.03,19.998-0.064
			c0,1.275,0,2.551,0,4C77.112,116.985,70.552,116.985,63.992,116.985z"/>
		<path fill-rule="evenodd" clip-rule="evenodd" d="M43.995,88.988c-3.9,0-7.8,0-11.999,0c0-1.461,0-2.729,0-3.999
			c3.9,0,7.8,0,11.999,0C43.995,86.451,43.995,87.72,43.995,88.988z"/>
		<path fill-rule="evenodd" clip-rule="evenodd" d="M55.993,92.988c-3.9,0-7.8,0-11.998,0c0-1.462,0-2.73,0-4c3.9,0,7.8,0,11.998,0
			C55.993,90.45,55.993,91.719,55.993,92.988z"/>
		<path fill-rule="evenodd" clip-rule="evenodd" d="M63.992,96.987c-2.573,0-5.146,0-7.999,0c0-1.473,0-2.736,0-3.999
			c2.667,0,5.333,0,7.999,0C63.992,94.321,63.992,95.655,63.992,96.987z"/>
		<path fill-rule="evenodd" clip-rule="evenodd" d="M151.98,96.987c0,1.263,0,2.526,0,4c-2.852,0-5.426,0-7.999,0
			c0-1.263,0-2.526,0-4C146.834,96.987,149.407,96.987,151.98,96.987z"/>
		<path fill-rule="evenodd" clip-rule="evenodd" d="M159.979,92.988c0,1.263,0,2.526,0,3.999c-2.852,0-5.426,0-7.999,0
			c0-1.262,0-2.525,0-3.999C154.833,92.988,157.406,92.988,159.979,92.988z"/>
		<path fill-rule="evenodd" clip-rule="evenodd" fill="#FE9800" d="M107.986,56.993c-1.251,0-2.502,0-4,0c0-1.498,0-2.749,0-4
			c1.333,0,2.666,0,4,0C107.986,54.326,107.986,55.66,107.986,56.993z"/>
		<path fill-rule="evenodd" clip-rule="evenodd" d="M123.984,56.993c0-1.333,0-2.667,0-4c1.333,0,2.666,0,3.999,0
			c0,1.333,0,2.667,0,4C126.65,56.993,125.317,56.993,123.984,56.993z"/>
		<path fill-rule="evenodd" clip-rule="evenodd" fill="#FE9800" d="M135.982,56.993c0-1.25,0-2.501,0-4c1.498,0,2.749,0,4,0
			c0,1.251,0,2.502,0,4C138.484,56.993,137.233,56.993,135.982,56.993z"/>
		<path fill-rule="evenodd" clip-rule="evenodd" fill="#FE9800" d="M111.985,60.992c-1.25,0-2.502,0-3.999,0c0-1.498,0-2.749,0-4
			c1.333,0,2.666,0,3.999,0C111.985,58.326,111.985,59.659,111.985,60.992z"/>
		<path fill-rule="evenodd" clip-rule="evenodd" d="M127.983,56.993c1.334,0,2.667,0,4,0c0,1.333,0,2.667,0,4c-1.333,0-2.666,0-4,0
			C127.983,59.659,127.983,58.326,127.983,56.993z"/>
		<path fill-rule="evenodd" clip-rule="evenodd" fill="#FE9800" d="M131.983,60.992c0-1.333,0-2.667,0-4c1.333,0,2.666,0,3.999,0
			c0,1.251,0,2.501,0,4C134.485,60.992,133.234,60.992,131.983,60.992z"/>
		<path fill-rule="evenodd" clip-rule="evenodd" fill="#FE9800" d="M115.985,64.992c-1.251,0-2.502,0-4,0c0-1.498,0-2.749,0-4
			c1.334,0,2.667,0,4,0C115.985,62.325,115.985,63.659,115.985,64.992z"/>
		<path fill-rule="evenodd" clip-rule="evenodd" fill="#FE9800" d="M127.983,60.992c1.334,0,2.667,0,4,0c0,1.251,0,2.501,0,4
			c-1.497,0-2.749,0-4,0C127.983,63.659,127.983,62.325,127.983,60.992z"/>
		<path fill-rule="evenodd" clip-rule="evenodd" fill="#FE9800" d="M119.984,64.992c0,1.251,0,2.501,0,4c-1.497,0-2.748,0-3.999,0
			c0-1.333,0-2.667,0-4C117.318,64.992,118.651,64.992,119.984,64.992z"/>
		<path fill-rule="evenodd" clip-rule="evenodd" fill="#FE9800" d="M127.983,68.991c-1.251,0-2.502,0-3.999,0c0-1.498,0-2.749,0-4
			c1.333,0,2.666,0,3.999,0C127.983,66.325,127.983,67.658,127.983,68.991z"/>
		<path fill-rule="evenodd" clip-rule="evenodd" fill="#5D2A00" d="M131.983,36.995c0,1.251,0,2.502,0,4c-1.497,0-2.749,0-4,0
			c0-1.25,0-2.501,0-4C129.481,36.995,130.732,36.995,131.983,36.995z"/>
		<path fill-rule="evenodd" clip-rule="evenodd" fill="#FE9800" d="M119.984,24.997c0-1.158,0-2.316,0-3.823
			c1.202-0.065,2.424-0.132,4-0.218c0,1.481,0,2.761,0,4.041C122.651,24.997,121.318,24.997,119.984,24.997z"/>
		<path fill-rule="evenodd" clip-rule="evenodd" fill="#5D2A00" d="M147.981,24.997c-1.334,0-2.666,0-4,0c0-1.158,0-2.316,0-3.823
			c1.202-0.065,2.423-0.132,4-0.218C147.981,22.438,147.981,23.717,147.981,24.997z"/>
		<path fill-rule="evenodd" clip-rule="evenodd" fill="#FE9800" d="M119.984,28.996c-1.157,0-2.315,0-3.823,0
			c-0.065-1.204-0.132-2.429-0.218-3.999c1.482,0,2.762,0,4.041,0C119.984,26.33,119.984,27.664,119.984,28.996z"/>
		<path fill-rule="evenodd" clip-rule="evenodd" fill="#FE9800" d="M123.984,24.997c1.158,0,2.315,0,3.823,0
			c0.065,1.204,0.132,2.429,0.218,3.999c-1.482,0-2.762,0-4.041,0C123.984,27.664,123.984,26.33,123.984,24.997z"/>
		<path fill-rule="evenodd" clip-rule="evenodd" fill="#5D2A00" d="M143.981,24.997c0,1.25,0,2.502,0,3.999
			c-1.497,0-2.748,0-3.999,0c0-1.25,0-2.502,0-3.999C141.479,24.997,142.73,24.997,143.981,24.997z"/>
		<path fill-rule="evenodd" clip-rule="evenodd" fill="#FE9800" d="M123.984,28.996c0,1.158,0,2.316,0,3.823
			c-1.204,0.066-2.43,0.133-4,0.218c0-1.481,0-2.76,0-4.041C121.318,28.996,122.651,28.996,123.984,28.996z"/>
		<path fill-rule="evenodd" clip-rule="evenodd" fill="#5D2A00" d="M139.982,28.996c0,1.251,0,2.503,0,4c-1.498,0-2.749,0-4,0
			c0-1.25,0-2.502,0-4C137.48,28.996,138.731,28.996,139.982,28.996z"/>
		<path fill-rule="evenodd" clip-rule="evenodd" fill="#5D2A00" d="M135.982,32.996c0,1.251,0,2.502,0,4c-1.497,0-2.748,0-3.999,0
			c0-1.25,0-2.501,0-4C133.48,32.996,134.731,32.996,135.982,32.996z"/>
		<path fill-rule="evenodd" clip-rule="evenodd" fill="#FE9800" d="M91.988,40.995c0-1.158,0-2.316,0-3.823
			c1.204-0.066,2.429-0.133,4-0.218c0,1.481,0,2.761,0,4.041C94.654,40.995,93.322,40.995,91.988,40.995z"/>
		<path fill-rule="evenodd" clip-rule="evenodd" fill="#FE9800" d="M147.981,40.995c0-1.158,0-2.316,0-3.823
			c1.204-0.066,2.429-0.133,3.999-0.218c0,1.481,0,2.761,0,4.041C150.647,40.995,149.314,40.995,147.981,40.995z"/>
		<path fill-rule="evenodd" clip-rule="evenodd" fill="#FE9800" d="M91.988,44.994c-1.158,0-2.315,0-3.823,0
			c-0.065-1.204-0.132-2.429-0.218-4c1.482,0,2.761,0,4.041,0C91.988,42.328,91.988,43.662,91.988,44.994z"/>
		<path fill-rule="evenodd" clip-rule="evenodd" fill="#FE9800" d="M95.988,40.995c1.158,0,2.315,0,3.823,0
			c0.065,1.204,0.132,2.43,0.218,4c-1.482,0-2.761,0-4.041,0C95.988,43.662,95.988,42.328,95.988,40.995z"/>
		<path fill-rule="evenodd" clip-rule="evenodd" d="M143.981,100.987c0,1.251,0,2.501,0,3.999c-1.497,0-2.748,0-3.999,0
			c0-1.25,0-2.501,0-3.999C141.479,100.987,142.73,100.987,143.981,100.987z"/>
		<path fill-rule="evenodd" clip-rule="evenodd" d="M111.985,44.994c0-1.158,0-2.316,0-3.823c1.204-0.066,2.43-0.133,4-0.218
			c0,1.481,0,2.761,0,4.041C114.652,44.994,113.319,44.994,111.985,44.994z"/>
		<path fill-rule="evenodd" clip-rule="evenodd" fill="#5D2A00" d="M123.984,44.994c0-1.333,0-2.667,0-4c1.333,0,2.666,0,3.999,0
			c0,1.251,0,2.502,0,4C126.486,44.994,125.235,44.994,123.984,44.994z"/>
		<path fill-rule="evenodd" clip-rule="evenodd" fill="#FE9800" d="M147.981,44.994c-1.158,0-2.315,0-3.823,0
			c-0.065-1.204-0.133-2.429-0.218-4c1.481,0,2.761,0,4.041,0C147.981,42.328,147.981,43.662,147.981,44.994z"/>
		<path fill-rule="evenodd" clip-rule="evenodd" fill="#FE9800" d="M151.98,40.995c1.158,0,2.315,0,3.823,0
			c0.065,1.204,0.133,2.43,0.218,4c-1.481,0-2.761,0-4.041,0C151.98,43.662,151.98,42.328,151.98,40.995z"/>
		<path fill-rule="evenodd" clip-rule="evenodd" d="M59.992,120.984c0-1.251,0-2.501,0-3.999c1.498,0,2.749,0,4,0
			c0,1.251,0,2.501,0,3.999C62.495,120.984,61.243,120.984,59.992,120.984z"/>
		<path fill-rule="evenodd" clip-rule="evenodd" fill="#FE9800" d="M95.988,44.994c0,1.158,0,2.316,0,3.823
			c-1.204,0.066-2.429,0.133-4,0.218c0-1.481,0-2.76,0-4.041C93.322,44.994,94.654,44.994,95.988,44.994z"/>
		<path fill-rule="evenodd" clip-rule="evenodd" d="M151.98,116.985c1.251,0,2.502,0,4,0c0,1.498,0,2.748,0,3.999
			c-1.334,0-2.666,0-4,0C151.98,119.651,151.98,118.318,151.98,116.985z"/>
		<path fill-rule="evenodd" clip-rule="evenodd" d="M107.986,48.994c0-1.25,0-2.501,0-4c1.497,0,2.749,0,3.999,0
			c0,1.251,0,2.502,0,4C110.488,48.994,109.237,48.994,107.986,48.994z"/>
		<path fill-rule="evenodd" clip-rule="evenodd" d="M119.984,44.994c0,1.333,0,2.667,0,4c-1.25,0-2.502,0-3.999,0
			c0-1.498,0-2.749,0-4C117.318,44.994,118.651,44.994,119.984,44.994z"/>
		<path fill-rule="evenodd" clip-rule="evenodd" fill="#FE9800" d="M151.98,44.994c0,1.158,0,2.316,0,3.823
			c-1.204,0.066-2.43,0.133-3.999,0.218c0-1.481,0-2.76,0-4.041C149.314,44.994,150.647,44.994,151.98,44.994z"/>
		<path fill-rule="evenodd" clip-rule="evenodd" fill="#FE9800" d="M103.987,52.993c-1.158,0-2.316,0-3.823,0
			c-0.065-1.204-0.132-2.429-0.218-4c1.482,0,2.761,0,4.041,0C103.987,50.327,103.987,51.661,103.987,52.993z"/>
		<path fill-rule="evenodd" clip-rule="evenodd" d="M103.987,52.993c0-1.333,0-2.667,0-4c1.333,0,2.666,0,4,0c0,1.333,0,2.667,0,4
			C106.653,52.993,105.32,52.993,103.987,52.993z"/>
		<path fill-rule="evenodd" clip-rule="evenodd" fill="#5D2A00" d="M127.983,52.993c-1.333,0-2.666,0-3.999,0c0-1.333,0-2.667,0-4
			c1.333,0,2.666,0,3.999,0C127.983,50.327,127.983,51.661,127.983,52.993z"/>
		<path fill-rule="evenodd" clip-rule="evenodd" fill="#FE9800" d="M140.124,52.851c0-1.121,0-2.383,0-3.75c1.238,0,2.333,0,3.646,0
			c0,1.179,0,2.392,0,3.75C142.508,52.851,141.246,52.851,140.124,52.851z"/>
		<path fill-rule="evenodd" clip-rule="evenodd" fill="#1E1E1E" d="M59.992,120.984c1.251,0,2.502,0,4,0c0-1.498,0-2.748,0-3.999
			c6.561,0,13.12,0,19.998,0c0-1.449,0-2.725,0-4c4,0,7.999,0,11.999,0c0,1.279,0,2.559,0,3.807
			c1.562,0.172,2.795,0.308,4.173,0.459c0,1.365,0,2.474,0,3.563c1.403,0.147,2.632,0.276,4.008,0.421c0,1.402,0,2.511,0,3.951
			c2.733,0,5.284,0,7.996,0c0,1.443,0,2.552,0,3.992c2.731,0,5.283,0,7.819,0c0,1.491,0,2.648,0,3.806c-14.664,0-29.33,0-43.994,0
			c-5.333,0-10.665,0-15.998,0C59.992,128.983,59.992,124.984,59.992,120.984z"/>
		<path fill-rule="evenodd" clip-rule="evenodd" fill="#3C3C3C" d="M119.984,132.983c0-1.157,0-2.314,0-3.806
			c-2.536,0-5.088,0-7.819,0c0-1.44,0-2.549,0-3.992c-2.712,0-5.263,0-7.996,0c0-1.44,0-2.549,0-3.951
			c-1.376-0.145-2.605-0.273-4.008-0.421c0-1.089,0-2.197,0-3.563c-1.378-0.151-2.612-0.287-4.173-0.459c0-1.248,0-2.527,0-3.807
			c4,0,7.999,0,11.999,0c0,1.283,0,2.565,0,4c2.308,0,4.277,0.016,6.248-0.004c1.926-0.02,3.853-0.075,5.75-0.114
			c0-1.559,0-2.721,0-3.882c1.334,0,2.667,0,4,0c0,1.27,0,2.538,0,4c4.198,0,8.099,0,11.998,0c0,1.272,0,2.545,0,3.999
			c5.54,0,10.769,0,15.998,0c0,1.251,0,2.502,0,4c1.498,0,2.749,0,4,0c0,2.666,0,5.332,0,7.999c-5.333,0-10.665,0-15.998,0
			C133.316,132.983,126.65,132.983,119.984,132.983z"/>
		<path fill-rule="evenodd" clip-rule="evenodd" fill="#1E1E1E" d="M75.99,136.982c0,2.493,0,4.986,0,7.846
			c-2.546,0.352-5.16,0.095-7.75,0.143c-2.637,0.049-5.275,0.011-8.248,0.011c0-2.765,0-5.382,0-7.999
			C65.325,136.982,70.658,136.982,75.99,136.982z"/>
		<path fill-rule="evenodd" clip-rule="evenodd" fill="#3C3C3C" d="M155.98,136.982c0,2.493,0,4.986,0,7.846
			c-2.547,0.352-5.161,0.095-7.75,0.143c-2.637,0.049-5.275,0.011-8.248,0.011c0-2.765,0-5.382,0-7.999
			C145.315,136.982,150.647,136.982,155.98,136.982z"/>
		<path fill-rule="evenodd" clip-rule="evenodd" fill="#3C3C3C" d="M75.99,136.982c-5.333,0-10.665,0-15.998,0
			c0-1.333,0-2.666,0-3.999c5.333,0,10.666,0,15.998,0C75.99,134.316,75.99,135.649,75.99,136.982z"/>
		<path fill-rule="evenodd" clip-rule="evenodd" fill="#5A5A5A" d="M155.98,136.982c-5.333,0-10.665,0-15.998,0
			c0-1.333,0-2.666,0-3.999c5.333,0,10.665,0,15.998,0C155.98,134.316,155.98,135.649,155.98,136.982z"/>
		<path fill-rule="evenodd" clip-rule="evenodd" fill="#1E1E1E" d="M135.887,136.982c0,1.421,0,2.533,0,3.824
			c-3.809,0-7.575,0-11.699,0c-0.054-0.541-0.141-1.291-0.2-2.043c-0.085-1.072-0.051-1.876,1.493-1.818
			C128.79,137.067,132.107,136.982,135.887,136.982z"/>
		<path fill-rule="evenodd" clip-rule="evenodd" fill="#5A5A5A" d="M155.98,124.984c-1.251,0-2.502,0-4,0c0-1.498,0-2.749,0-4
			c1.334,0,2.666,0,4,0C155.98,122.317,155.98,123.651,155.98,124.984z"/>
		<path fill-rule="evenodd" clip-rule="evenodd" fill="#5A5A5A" d="M119.984,108.986c-5.332,0-10.665,0-15.998,0
			c0-5.332,0-10.666,0-15.998c1.284,0,2.567,0,4.015,0c0-1.451,0-2.569,0-4.036c1.404,0,2.637,0,3.891,0
			c0.076-1.462,0.134-2.58,0.209-4.041c1.347,0,2.579,0,3.792,0c0.075-1.467,0.133-2.583,0.195-3.79
			c1.401-0.112,2.645-0.212,4.035-0.323c0-1.392,0-2.507,0-3.639c1.409-0.149,2.65-0.282,3.86-0.41c0-1.434,0-2.596,0-3.758
			c9.332,0,18.664,0,27.996,0c0,1.333,0,2.667,0,4c-1.251,0-2.502,0-3.999,0c0,1.498,0,2.749,0,4c-1.251,0-2.502,0-4,0
			c0,1.498,0,2.749,0,4c-1.251,0-2.502,0-3.999,0c0,1.498,0,2.749,0,3.999c-1.251,0-2.502,0-4,0c0,1.498,0,2.749,0,4
			c-1.251,0-2.502,0-3.999,0c0,1.498,0,2.749,0,3.999c-1.251,0-2.502,0-4,0c0,1.498,0,2.749,0,4c-1.251,0-2.502,0-3.999,0
			c0,1.498,0,2.749,0,3.999c-1.251,0-2.502,0-4,0C119.984,106.484,119.984,107.735,119.984,108.986z"/>
		<path fill-rule="evenodd" clip-rule="evenodd" fill="#3C3C3C" d="M143.981,100.987c-1.251,0-2.502,0-3.999,0
			c0,1.498,0,2.749,0,3.999c-1.16,0-2.32,0-3.752,0c-0.133,1.205-0.269,2.442-0.439,4c-2.584,0-5.195,0-7.808,0c0-1.333,0-2.667,0-4
			c1.251,0,2.503,0,4,0c0-1.498,0-2.748,0-3.999c1.251,0,2.502,0,3.999,0c0-1.498,0-2.749,0-4c1.251,0,2.502,0,4,0
			c0-1.497,0-2.748,0-3.999c1.251,0,2.502,0,3.999,0c0-1.498,0-2.749,0-4c1.251,0,2.502,0,4,0c0-1.497,0-2.748,0-3.999
			c1.251,0,2.502,0,3.999,0c0-1.498,0-2.749,0-4c1.251,0,2.502,0,4,0c0-1.498,0-2.749,0-4c1.25,0,2.502,0,3.999,0
			c0-1.498,0-2.749,0-4c4,0,7.999,0,11.999,0c0,1.278,0,2.556,0,3.809c-1.562,0.17-2.797,0.305-4.17,0.454c0,1.36,0,2.469,0,3.56
			c-1.4,0.152-2.631,0.286-3.829,0.416c0,1.447,0,2.603,0,3.759c-1.264,0-2.526,0-4,0c0,2.853,0,5.425,0,7.999
			c-2.573,0-5.146,0-7.999,0c0,1.474,0,2.737,0,3.999c-2.573,0-5.146,0-7.999,0C143.981,98.461,143.981,99.725,143.981,100.987z"/>
		<path fill-rule="evenodd" clip-rule="evenodd" fill="#1E1E1E" d="M103.987,92.988c0,5.332,0,10.666,0,15.998
			c-5.147,0-10.294,0-15.761,0c-0.129-1.194-0.261-2.425-0.431-4c-1.239,0-2.522,0-3.806,0c0-1.161,0-2.322,0-3.881
			c1.898-0.039,3.824-0.095,5.75-0.113c1.97-0.021,3.941-0.005,6.248-0.005c0-1.435,0-2.717,0-4c1.164,0,2.328,0,3.857,0
			c0.308-6.547,0.052-13.108,0.169-19.833c-7.965,0-15.736,0-23.849,0c-0.071-1.376-0.134-2.608-0.214-4.164
			c9.496,0,18.765,0,28.036,0c0,2.667,0,5.333,0,7.999c0,1.333,0,2.667,0,4C103.987,87.656,103.987,90.321,103.987,92.988z"/>
		<path fill-rule="evenodd" clip-rule="evenodd" fill="#3C3C3C" d="M47.994,80.99c15.894,0,31.788,0,47.994,0
			c0,4.12,0,8.058,0,11.999c-10.665,0-21.331,0-31.996,0c0-1.333,0-2.667,0-4.059c9.245-0.06,18.49-0.06,27.784-0.06
			c0-1.358,0-2.583,0-3.881c-9.147,0-18.083-0.001-27.018,0.007c-0.143,0-0.303,0.078-0.425,0.163
			c-0.132,0.091-0.229,0.231-0.341,0.351c0,1.16,0,2.319,0,3.42c-1.271,0.059-2.542,0.059-3.843,0.059
			c-0.14-1.532-0.251-2.763-0.372-4.08c-3.996,0-7.737,0-11.783,0C47.994,83.532,47.994,82.261,47.994,80.99z"/>
		<path fill-rule="evenodd" clip-rule="evenodd" fill="#1E1E1E" d="M47.994,80.99c0,1.271,0,2.542,0,3.918c4.046,0,7.787,0,11.783,0
			c0.12,1.317,0.232,2.548,0.372,4.08c1.301,0,2.572,0,3.843,0c0,1.333,0,2.667,0,4c-2.666,0-5.333,0-7.999,0c0-1.27,0-2.538,0-4
			c-4.198,0-8.098,0-11.998,0c0-1.269,0-2.537,0-3.999c-4.198,0-8.099,0-11.999,0c0-1.149,0-2.299,0-3.946
			C37.313,80.92,42.656,81.024,47.994,80.99z"/>
		<path fill-rule="evenodd" clip-rule="evenodd" fill="#3C3C3C" d="M103.987,92.988c0-2.667,0-5.332,0-7.999c1.251,0,2.502,0,4,0
			c0-1.498,0-2.749,0-4c1.251,0,2.502,0,3.999,0c0-1.498,0-2.749,0-4c1.251,0,2.503,0,4,0c0-1.498,0-2.749,0-4
			c2.666,0,5.333,0,7.999,0c0,1.162,0,2.325,0,3.758c-1.21,0.128-2.451,0.261-3.86,0.41c0,1.132,0,2.248,0,3.639
			c-1.391,0.111-2.634,0.211-4.035,0.323c-0.063,1.206-0.12,2.323-0.195,3.79c-1.213,0-2.445,0-3.792,0
			c-0.075,1.461-0.133,2.579-0.209,4.041c-1.254,0-2.486,0-3.891,0c0,1.467,0,2.585,0,4.036
			C106.554,92.988,105.271,92.988,103.987,92.988z"/>
		<path fill-rule="evenodd" clip-rule="evenodd" fill="#1E1E1E" d="M63.992,92.988c10.666,0,21.331,0,31.996,0
			c0,1.333,0,2.667,0,3.999c-10.665,0-21.331,0-31.996,0C63.992,95.655,63.992,94.321,63.992,92.988z"/>
		<path fill-rule="evenodd" clip-rule="evenodd" fill="#5A5A5A" d="M163.979,84.989c0-1.156,0-2.313,0-3.759
			c1.198-0.13,2.429-0.264,3.829-0.416c0-1.091,0-2.2,0-3.56c1.373-0.149,2.608-0.284,4.17-0.454c0-1.253,0-2.531,0-3.809
			c2.666,0,5.332,0,7.999,0c0,1.278,0,2.556,0,3.809c-1.562,0.17-2.797,0.305-4.17,0.454c0,1.36,0,2.469,0,3.56
			c-1.4,0.152-2.632,0.286-3.829,0.416c0,1.447,0,2.603,0,3.759C169.312,84.989,166.646,84.989,163.979,84.989z"/>
		<path fill-rule="evenodd" clip-rule="evenodd" fill="#3C3C3C" d="M171.979,84.989c0-1.156,0-2.313,0-3.759
			c1.197-0.13,2.429-0.264,3.829-0.416c0-1.091,0-2.2,0-3.56c1.373-0.149,2.608-0.284,4.17-0.454c0-1.253,0-2.531,0-3.809
			c1.162,0,2.325,0,3.879,0c0.04,1.903,0.096,3.833,0.116,5.763c0.02,1.97,0.004,3.941,0.004,6.235
			C179.868,84.989,175.923,84.989,171.979,84.989z"/>
		<path fill-rule="evenodd" clip-rule="evenodd" fill="#3C3C3C" d="M103.987,80.99c0-2.667,0-5.333,0-7.999c2.666,0,5.333,0,7.999,0
			c0,1.333,0,2.667,0,4c-1.25,0-2.502,0-3.999,0c0,1.498,0,2.749,0,4C106.653,80.99,105.32,80.99,103.987,80.99z"/>
		<path fill-rule="evenodd" clip-rule="evenodd" fill="#5A5A5A" d="M111.985,76.99c0-1.333,0-2.667,0-4c1.334,0,2.667,0,4,0
			c0,1.251,0,2.501,0,4C114.488,76.99,113.236,76.99,111.985,76.99z"/>
		<path fill-rule="evenodd" clip-rule="evenodd" fill="#3C3C3C" d="M151.98,76.99c0-1.333,0-2.667,0-4c1.334,0,2.666,0,4,0
			c0,1.333,0,2.667,0,4C154.646,76.99,153.314,76.99,151.98,76.99z"/>
		<path fill-rule="evenodd" clip-rule="evenodd" fill="#5A5A5A" d="M155.98,76.99c0-1.333,0-2.667,0-4c1.333,0,2.666,0,3.999,0
			c0,1.251,0,2.501,0,4C158.482,76.99,157.23,76.99,155.98,76.99z"/>
		<path fill-rule="evenodd" clip-rule="evenodd" fill="#5A5A5A" d="M151.98,120.984c-5.229,0-10.458,0-15.998,0
			c0-1.454,0-2.727,0-3.999c5.333,0,10.665,0,15.998,0C151.98,118.318,151.98,119.651,151.98,120.984z"/>
		<path fill-rule="evenodd" clip-rule="evenodd" fill="#5A5A5A" d="M119.984,112.985c0,1.161,0,2.323,0,3.882
			c-1.897,0.039-3.824,0.095-5.75,0.114c-1.971,0.02-3.94,0.004-6.248,0.004c0-1.435,0-2.717,0-4
			C111.985,112.985,115.985,112.985,119.984,112.985z"/>
		<path fill-rule="evenodd" clip-rule="evenodd" fill="#5A5A5A" d="M135.982,116.985c-3.899,0-7.8,0-11.998,0c0-1.462,0-2.73,0-4
			c3.899,0,7.8,0,11.998,0C135.982,114.447,135.982,115.716,135.982,116.985z"/>
		<path fill-rule="evenodd" clip-rule="evenodd" fill="#3C3C3C" d="M119.984,108.986c0-1.251,0-2.502,0-4c1.498,0,2.749,0,4,0
			c0,1.333,0,2.667,0,4C122.651,108.986,121.318,108.986,119.984,108.986z"/>
		<path fill-rule="evenodd" clip-rule="evenodd" fill="#5A5A5A" d="M123.984,108.986c0-1.333,0-2.667,0-4c1.333,0,2.666,0,3.999,0
			c0,1.333,0,2.667,0,4C126.65,108.986,125.317,108.986,123.984,108.986z"/>
		<path fill-rule="evenodd" clip-rule="evenodd" fill="#1E1E1E" d="M107.986,52.993c0-1.333,0-2.667,0-4c1.251,0,2.502,0,3.999,0
			c0-1.498,0-2.749,0-4c1.334,0,2.667,0,4,0c0,1.251,0,2.502,0,4c1.497,0,2.749,0,3.999,0c0,1.333,0,2.667,0,4
			c-2.666,0-5.332,0-7.999,0C110.652,52.993,109.319,52.993,107.986,52.993z"/>
		<path fill-rule="evenodd" clip-rule="evenodd" fill="#3C3C3C" d="M111.985,52.993c2.667,0,5.333,0,7.999,0
			c0,2.667,0,5.333,0,7.999c-1.333,0-2.666,0-3.999,0c0-1.251,0-2.501,0-4c-1.497,0-2.749,0-4,0
			C111.985,55.66,111.985,54.326,111.985,52.993z"/>
		<path fill-rule="evenodd" clip-rule="evenodd" d="M115.985,60.992c1.333,0,2.666,0,3.999,0c0,1.333,0,2.667,0,4
			c-1.333,0-2.666,0-3.999,0C115.985,63.659,115.985,62.325,115.985,60.992z"/>
		<path fill-rule="evenodd" clip-rule="evenodd" d="M127.983,64.992c-1.333,0-2.666,0-3.999,0c0-1.333,0-2.667,0-4
			c1.333,0,2.666,0,3.999,0C127.983,62.325,127.983,63.659,127.983,64.992z"/>
		<path fill-rule="evenodd" clip-rule="evenodd" fill="#3C3C3C" d="M127.983,60.992c-1.333,0-2.666,0-3.999,0c0-1.333,0-2.667,0-4
			c1.333,0,2.666,0,3.999,0C127.983,58.326,127.983,59.659,127.983,60.992z"/>
		<path fill-rule="evenodd" clip-rule="evenodd" d="M111.985,52.993c0,1.333,0,2.667,0,4c-1.333,0-2.666,0-3.999,0
			c0-1.333,0-2.667,0-4C109.319,52.993,110.652,52.993,111.985,52.993z"/>
		<path fill-rule="evenodd" clip-rule="evenodd" d="M111.985,56.993c1.251,0,2.503,0,4,0c0,1.498,0,2.749,0,4c-1.333,0-2.666,0-4,0
			C111.985,59.659,111.985,58.326,111.985,56.993z"/>
		<path fill-rule="evenodd" clip-rule="evenodd" fill="none" d="M123.984,28.996c-1.333,0-2.666,0-4,0c0-1.333,0-2.667,0-3.999
			c1.334,0,2.667,0,4,0C123.984,26.33,123.984,27.664,123.984,28.996z"/>
		<path fill-rule="evenodd" clip-rule="evenodd" fill="none" d="M95.988,44.994c-1.333,0-2.666,0-4,0c0-1.333,0-2.667,0-4
			c1.333,0,2.666,0,4,0C95.988,42.328,95.988,43.662,95.988,44.994z"/>
		<path fill-rule="evenodd" clip-rule="evenodd" fill="none" d="M151.98,44.994c-1.333,0-2.666,0-3.999,0c0-1.333,0-2.667,0-4
			c1.333,0,2.666,0,3.999,0C151.98,42.328,151.98,43.662,151.98,44.994z"/>
		<path fill-rule="evenodd" clip-rule="evenodd" fill="#3C3C3C" d="M147.981,80.99c0-1.251,0-2.501,0-4c1.497,0,2.748,0,3.999,0
			c0,1.333,0,2.667,0,4C150.647,80.99,149.314,80.99,147.981,80.99z"/>
		<path fill-rule="evenodd" clip-rule="evenodd" fill="#3C3C3C" d="M143.981,84.989c0-1.251,0-2.502,0-4c1.498,0,2.749,0,4,0
			c0,1.333,0,2.667,0,4C146.647,84.989,145.315,84.989,143.981,84.989z"/>
		<path fill-rule="evenodd" clip-rule="evenodd" fill="#3C3C3C" d="M139.982,88.988c0-1.25,0-2.501,0-3.999c1.497,0,2.748,0,3.999,0
			c0,1.333,0,2.667,0,3.999C142.648,88.988,141.315,88.988,139.982,88.988z"/>
		<path fill-rule="evenodd" clip-rule="evenodd" fill="#3C3C3C" d="M135.982,92.988c0-1.251,0-2.502,0-4c1.498,0,2.749,0,4,0
			c0,1.333,0,2.667,0,4C138.648,92.988,137.316,92.988,135.982,92.988z"/>
		<path fill-rule="evenodd" clip-rule="evenodd" fill="#3C3C3C" d="M131.983,96.987c0-1.25,0-2.501,0-3.999c1.497,0,2.748,0,3.999,0
			c0,1.333,0,2.667,0,3.999C134.649,96.987,133.316,96.987,131.983,96.987z"/>
		<path fill-rule="evenodd" clip-rule="evenodd" fill="#3C3C3C" d="M127.983,100.987c0-1.251,0-2.502,0-4c1.498,0,2.749,0,4,0
			c0,1.333,0,2.667,0,4C130.65,100.987,129.317,100.987,127.983,100.987z"/>
		<path fill-rule="evenodd" clip-rule="evenodd" fill="#3C3C3C" d="M127.983,104.986c-1.333,0-2.666,0-3.999,0
			c0-1.25,0-2.501,0-3.999c1.497,0,2.748,0,3.999,0C127.983,102.32,127.983,103.654,127.983,104.986z"/>
		<path fill-rule="evenodd" clip-rule="evenodd" fill="#5A5A5A" d="M151.98,80.99c0-1.333,0-2.667,0-4c1.334,0,2.666,0,4,0
			c0,1.251,0,2.501,0,4C154.482,80.99,153.231,80.99,151.98,80.99z"/>
		<path fill-rule="evenodd" clip-rule="evenodd" fill="#5A5A5A" d="M147.981,84.989c0-1.333,0-2.667,0-4c1.333,0,2.666,0,3.999,0
			c0,1.251,0,2.501,0,4C150.483,84.989,149.232,84.989,147.981,84.989z"/>
		<path fill-rule="evenodd" clip-rule="evenodd" fill="#5A5A5A" d="M143.981,88.988c0-1.332,0-2.666,0-3.999c1.334,0,2.666,0,4,0
			c0,1.251,0,2.502,0,3.999C146.483,88.988,145.232,88.988,143.981,88.988z"/>
		<path fill-rule="evenodd" clip-rule="evenodd" fill="#5A5A5A" d="M139.982,92.988c0-1.333,0-2.667,0-4c1.333,0,2.666,0,3.999,0
			c0,1.251,0,2.502,0,4C142.484,92.988,141.233,92.988,139.982,92.988z"/>
		<path fill-rule="evenodd" clip-rule="evenodd" fill="#5A5A5A" d="M135.982,96.987c0-1.332,0-2.666,0-3.999c1.334,0,2.666,0,4,0
			c0,1.251,0,2.502,0,3.999C138.484,96.987,137.233,96.987,135.982,96.987z"/>
		<path fill-rule="evenodd" clip-rule="evenodd" fill="#5A5A5A" d="M131.983,100.987c0-1.333,0-2.667,0-4c1.333,0,2.666,0,3.999,0
			c0,1.251,0,2.502,0,4C134.485,100.987,133.234,100.987,131.983,100.987z"/>
		<path fill-rule="evenodd" clip-rule="evenodd" fill="#5A5A5A" d="M127.983,104.986c0-1.332,0-2.666,0-3.999c1.334,0,2.667,0,4,0
			c0,1.251,0,2.501,0,3.999C130.486,104.986,129.234,104.986,127.983,104.986z"/>
		<path fill-rule="evenodd" clip-rule="evenodd" fill="#5A5A5A" d="M103.987,80.99c1.333,0,2.666,0,4,0c0,1.251,0,2.501,0,4
			c-1.498,0-2.749,0-4,0C103.987,83.656,103.987,82.323,103.987,80.99z"/>
		<path fill-rule="evenodd" clip-rule="evenodd" fill="#5A5A5A" d="M63.992,88.87c0-1.041,0-2.2,0-3.36
			c0.112-0.119,0.209-0.26,0.341-0.351c0.122-0.085,0.282-0.163,0.425-0.163c8.935-0.008,17.87-0.007,27.018-0.007
			c0,1.298,0,2.522,0,3.881C82.481,88.87,73.236,88.87,63.992,88.87z"/>
		<path fill-rule="evenodd" clip-rule="evenodd" fill="#5A5A5A" d="M107.986,80.99c0-1.251,0-2.501,0-4c1.497,0,2.749,0,3.999,0
			c0,1.251,0,2.501,0,4C110.488,80.99,109.237,80.99,107.986,80.99z"/>
	</g>
</g>
</svg>
